<svg width="176" height="26" viewBox="0 0 176 26" fill="none" xmlns="http://www.w3.org/2000/svg">
<g clip-path="url(#clip0_3601_3319)">
<path d="M38.9548 13.9901L36.1931 7.46096L33.4313 13.9901H38.9548ZM47.9669 19.9782V20.8078H38.7005V19.9782C40.8444 19.6896 41.1352 19.2567 40.5538 17.8499L39.5363 15.4691H32.8136L32.0504 17.2366C31.36 18.8599 32.0141 19.6896 34.1944 19.9782V20.8078H27.9805V19.9782C28.7436 19.6896 29.3614 18.8599 29.9065 17.5973L36.5565 2.23039H39.4272L46.2226 17.8499C46.7313 19.0403 47.1675 19.6896 47.9669 19.9782Z" fill="#323E48"/>
<path d="M64.4294 19.4386V20.16L59.1239 21.0257H58.4698L57.961 18.3203H57.8883C56.9072 20.0878 55.1993 21.134 52.8373 21.134C49.5304 21.134 48.1859 19.2221 48.1859 16.0477V10.8532C48.1859 9.62678 47.6771 8.54461 46.4053 8.29208V7.57061L52.2558 6.70488H53.0553V15.7952C53.0553 17.8153 53.7094 18.7171 55.1266 18.7171C56.9072 18.7171 57.8883 17.0217 57.8883 14.2801V10.8532C57.8883 9.62678 57.3796 8.54461 56.1077 8.29208V7.57061L61.9583 6.70488H62.7577V17.0938C62.6488 18.3564 62.9031 19.186 64.4294 19.4386Z" fill="#323E48"/>
<path d="M75.0032 14.2793V9.04877C74.2037 8.39944 73.3679 8.11088 72.6048 8.11088C70.8967 8.11088 69.7706 9.33733 69.7706 13.4497C69.7706 17.0209 70.6792 18.7163 72.3508 18.7163C73.9855 18.7163 75.0032 17.0569 75.0032 14.2793ZM80.8904 19.4377V20.1591L76.3112 21.0249H75.6572L75.1486 18.4637H75.0395C74.131 20.1591 72.6048 21.1331 70.6064 21.1331C67.4813 21.1331 64.792 18.7163 64.792 14.3154C64.792 9.48168 67.9898 6.74012 72.4593 6.74012C73.3315 6.74012 74.2037 6.84835 75.0032 7.06481V5.51365C75.0032 4.28719 74.4947 3.205 73.2224 2.95249V2.23104L79.0733 1.3653H79.8727V17.129C79.8364 18.3556 80.1273 19.1131 80.8904 19.4377Z" fill="#323E48"/>
<path d="M82.9981 2.98973C82.9981 1.54682 84.0886 0.428574 85.6511 0.428574C87.1773 0.428574 88.3035 1.33039 88.3035 2.88152C88.3035 4.32443 87.2137 5.44268 85.6511 5.44268C84.1249 5.44268 82.9981 4.54086 82.9981 2.98973ZM82.0168 20.0882C83.1436 19.8717 83.3618 19.511 83.3618 18.2846V10.8536C83.3618 9.62712 82.8527 8.54494 81.5811 8.29242V7.57095L87.4319 6.70522H88.2307V18.2846C88.2307 19.511 88.6308 19.7996 89.866 20.0882V20.8096H82.0532V20.0882H82.0168Z" fill="#323E48"/>
<path d="M100.513 14.3889C100.513 10.2405 99.6776 7.93188 97.6422 7.93188C95.753 7.93188 95.2075 9.95195 95.2075 13.2706C95.2075 17.419 96.0433 19.7637 98.0787 19.7637C99.9679 19.7998 100.513 17.7797 100.513 14.3889ZM90.084 14.1364C90.084 9.66339 93.5364 6.63326 98.115 6.63326C102.475 6.63326 105.601 9.41086 105.601 13.6314C105.601 18.1044 102.149 21.1345 97.6059 21.1345C93.2091 21.0984 90.084 18.3208 90.084 14.1364Z" fill="#323E48"/>
<path d="M122.39 2.23039V3.06006C121.517 3.34864 121.045 4.07009 120.463 5.44086L114.104 20.8078H111.233L104.692 5.18835C104.147 3.92581 103.784 3.38471 102.912 3.06006V2.23039H112.433V3.06006C110.289 3.34864 109.925 4.32261 110.47 5.72944L114.395 15.433L117.884 6.7034C118.683 4.68333 117.302 3.34864 116.103 3.06006V2.23039H122.39Z" fill="#323E48"/>
<path d="M124.861 12.079H129.367C129.439 9.19318 128.713 7.93062 127.405 7.93062C125.95 7.96666 125.043 9.66213 124.861 12.079ZM133.872 17.3817C131.947 20.2675 129.548 21.0972 127.15 21.0972C123.371 21.0972 119.846 19.041 119.846 14.1712C119.846 9.51785 123.044 6.59593 127.804 6.59593C132.855 6.59593 133.982 9.84245 133.763 13.4136H124.824C124.97 17.2013 126.714 18.4278 128.967 18.4278C130.239 18.4278 131.801 18.031 133 16.8045L133.872 17.3817Z" fill="#323E48"/>
<path d="M147.245 8.54385C147.245 9.30136 146.955 10.3114 146.446 11.2854L144.701 10.4557C144.011 10.1311 143.502 9.98679 143.067 9.98679C141.722 9.98679 141.322 10.9607 141.322 12.0429V18.2835C141.322 19.5099 141.722 19.7986 143.211 20.0871V20.8086H134.672V20.0871C136.198 19.8346 136.453 19.5099 136.453 18.2835V10.8525C136.453 9.62603 135.944 8.54385 134.672 8.29133V7.56992L140.523 6.70415H141.177V9.87855H141.286C142.085 7.93062 143.466 6.59593 145.174 6.59593C146.591 6.632 147.245 7.38954 147.245 8.54385Z" fill="#323E48"/>
<path d="M148.008 20.1953V16.3717H148.807C149.716 18.7163 151.969 19.8346 153.568 19.8346C154.767 19.8346 155.712 19.1853 155.712 18.0671C155.712 17.3456 155.239 16.7324 153.495 16.1191L152.405 15.7223C149.643 14.7844 148.117 13.594 148.117 11.1411C148.117 8.29133 150.443 6.59593 153.895 6.59593C156.221 6.59593 158.401 7.28129 158.837 7.49772V10.8886H158.074C157.093 9.08494 155.567 7.89452 153.822 7.89452C152.514 7.89452 151.86 8.57995 151.86 9.51785C151.86 10.3114 152.442 10.8886 154.077 11.4658L155.167 11.8625C158.111 12.8725 159.419 13.9908 159.419 16.3717C159.419 19.3296 157.02 21.1332 153.314 21.1332C151.024 21.0972 148.626 20.4839 148.008 20.1953Z" fill="#323E48"/>
<path d="M165.233 12.079H169.739C169.811 9.19318 169.085 7.93062 167.777 7.93062C166.323 7.96666 165.415 9.66213 165.233 12.079ZM174.245 17.3817C172.319 20.2675 169.921 21.0972 167.522 21.0972C163.743 21.0972 160.218 19.041 160.218 14.1712C160.218 9.51785 163.416 6.59593 168.176 6.59593C173.227 6.59593 174.354 9.84245 174.136 13.4136H165.196C165.342 17.2013 167.086 18.4278 169.339 18.4278C170.611 18.4278 172.173 18.031 173.373 16.8045L174.245 17.3817Z" fill="#323E48"/>
<path d="M0 16.1551V20.1592C0 20.5199 0.290711 20.7725 0.617761 20.8086C4.54236 20.9528 8.39429 22.5761 11.2287 25.2455C11.4831 25.498 11.8829 25.498 12.1372 25.2455C13.1184 24.3076 14.2085 23.514 15.4077 22.8647C11.5558 18.7524 6.0686 16.1551 0 16.1551Z" fill="#FF224A"/>
<path d="M0 9.1942V13.8476C7.01344 13.8476 13.3364 16.9498 17.6244 21.8197C19.2233 21.2064 20.9676 20.8818 22.7482 20.8096C17.6607 13.8115 9.37541 9.1942 0 9.1942Z" fill="#FF224A"/>
<path d="M8.68502 3.31257C6.0686 2.66326 3.37952 2.30253 0.690437 2.23039C0.290711 2.26646 0 2.55504 0 2.91577V6.88377C9.37545 6.88377 17.7697 11.1403 23.366 17.7777V11.1403C19.2233 7.46096 14.2085 4.71941 8.68502 3.31257Z" fill="#FF224A"/>
<path d="M15.2988 3.20553C18.2059 4.50414 20.9313 6.16349 23.3661 8.11141V2.91694C23.3661 2.55622 23.0754 2.26764 22.7119 2.26764C20.1682 2.30371 17.6609 2.62836 15.2988 3.20553Z" fill="#FF224A"/>
</g>
<defs>
<clipPath id="clip0_3601_3319">
<rect width="176" height="25.1429" fill="white" transform="translate(0 0.428574)"/>
</clipPath>
</defs>
</svg>
