<svg width="140" height="27" viewBox="0 0 140 27" fill="none" xmlns="http://www.w3.org/2000/svg">
<g clip-path="url(#clip0_5120_10264)">
<path d="M14.1857 12.9129C14.4657 13.4558 14.6288 14.1777 14.6871 14.9573C15.4277 14.3336 17.2349 13.9929 18.6634 14.5588C17.159 14.5588 15.2935 15.3615 14.6871 16.1989C14.5764 17.8448 14.0227 19.4733 13.084 20.0854C17.165 20.7207 18.8092 15.3384 22.2431 15.76C20.8789 12.4337 15.9406 11.7233 14.1857 12.9129Z" fill="#6CA448"/>
<path d="M10.9799 4.69504C6.16421 5.28985 2.17659 14.0504 5.73873 25.7216C6.00681 26.6109 6.68907 26.5128 7.90749 26.3857C14.7054 25.6754 27.7239 24.2894 28.5168 15.4942C29.0182 9.94446 24.5813 5.97129 19.136 5.61904C19.0077 5.61323 18.9031 5.52087 18.8447 5.41112C18.011 3.82302 15.0086 0 10.8868 0C-1.18738 0 -1.53134 19.9294 1.82669 25.2827C2.60802 26.5244 3.75058 26.3857 3.45899 25.5657C0.42171 17.0707 3.05106 2.63915 11.1896 2.63915C13.7958 2.63915 15.603 4.24458 17.3639 7.56515C17.4338 7.70376 17.5853 7.75579 17.737 7.77306C23.6429 8.54689 25.9922 12.3584 25.625 15.5289C25.2168 19.0862 22.5408 22.9034 7.68586 24.5435C6.96872 23.1287 5.32485 14.1948 7.97143 9.96758C6.75304 15.1188 7.97143 19.7273 8.97449 21.3558C12.0525 20.1257 13.1954 18.7339 13.1954 15.6386C13.1954 11.0764 8.96257 8.4661 10.9799 4.69504Z" fill="#6CA448"/>
<path fill-rule="evenodd" clip-rule="evenodd" d="M80.6721 12.7613V17.6278H82.2295C82.373 17.6278 82.4517 17.6989 82.4517 17.8481V18.561C82.4517 18.7035 82.3799 18.7812 82.2295 18.7812H78.1207C77.9773 18.7812 77.8986 18.7098 77.8986 18.561V17.8481C77.8986 17.7056 77.9703 17.6278 78.1207 17.6278H79.0304V12.7546H78.1207C77.9773 12.7546 77.8986 12.6836 77.8986 12.5344V11.7956C77.8986 11.6531 77.9703 11.5753 78.1207 11.5753H79.0304V10.1627C79.0304 9.00267 79.3968 8.25754 80.1295 7.93992C80.4304 7.80403 80.849 7.73926 81.3791 7.73926C81.9084 7.73926 82.4454 7.86219 82.995 8.102C83.0799 8.14087 83.1259 8.18607 83.1259 8.24458C83.1259 8.30302 83.1189 8.34822 83.112 8.37413L82.8898 9.09997C82.8376 9.21657 82.7589 9.24882 82.6418 9.20362C82.249 9.02858 81.8757 8.94451 81.5225 8.94451C81.1694 8.94451 80.9403 9.06111 80.8358 9.28769C80.7313 9.51461 80.6721 9.92291 80.6721 10.5192V11.5819H82.4454C82.5889 11.5819 82.6676 11.6531 82.6676 11.8022V12.5407C82.6676 12.6836 82.5959 12.7613 82.4454 12.7613H80.6721ZM77.2313 17.6212H76.3091V11.7892C76.3091 11.64 76.2304 11.5686 76.0869 11.5686H73.8685C73.7188 11.5686 73.6463 11.6467 73.6463 11.7892V12.5473C73.6463 12.6965 73.725 12.7676 73.8685 12.7676H74.6604V17.6212H73.7383C73.5878 17.6212 73.5154 17.6989 73.5154 17.8414V18.5544C73.5154 18.7035 73.5941 18.7746 73.7383 18.7746H77.2313C77.3817 18.7746 77.4542 18.6969 77.4542 18.5544V17.8414C77.4542 17.6926 77.3755 17.6212 77.2313 17.6212ZM74.2551 9.54052C74.2551 9.83849 74.3526 10.085 74.5365 10.2793C74.7197 10.4736 74.9746 10.571 75.295 10.571C75.6154 10.571 75.871 10.4736 76.0667 10.2793C76.2631 10.0913 76.3613 9.83849 76.3613 9.54052C76.3613 9.23586 76.2631 8.98972 76.0737 8.7887C75.8835 8.58803 75.6286 8.49073 75.3082 8.49073C74.9878 8.49073 74.7329 8.58803 74.5427 8.7887C74.3526 8.98972 74.2551 9.24248 74.2551 9.54052ZM36.168 17.8414V18.5544C36.168 18.6969 36.2399 18.7683 36.3904 18.7812H38.4511C39.38 18.7812 40.0604 18.7616 40.4791 18.7357C41.4996 18.671 42.3174 18.3859 42.9323 17.874C43.5472 17.3621 43.8547 16.6947 43.8547 15.8717C43.8547 15.2432 43.6585 14.7053 43.2594 14.2711C42.8603 13.837 42.2846 13.5582 41.5323 13.4416C41.9903 13.2536 42.3893 12.962 42.7295 12.5603C43.0631 12.1587 43.2332 11.6856 43.2332 11.141C43.2332 10.3959 42.9127 9.8192 42.2846 9.41759C41.6567 9.01563 40.8127 8.81496 39.7529 8.81496C38.6931 8.81496 37.5744 8.84087 36.4035 8.88607C36.253 8.88607 36.1811 8.9638 36.1811 9.11927V9.85806C36.1811 10.0073 36.2596 10.0784 36.4035 10.0784H37.1689V17.6212H36.3904C36.2399 17.6212 36.168 17.6989 36.168 17.8414ZM38.8109 12.9815V9.98769H39.4978C40.152 9.98769 40.6557 10.0913 41.009 10.3116C41.3622 10.5322 41.5389 10.9208 41.5389 11.4846C41.5389 12.4825 40.8127 12.9815 39.3669 12.9815H38.8109ZM38.8109 17.6537V14.1934V14.1868H39.8642C41.4146 14.1868 42.1865 14.7376 42.1865 15.8329C42.1865 16.5066 41.951 16.9733 41.4734 17.2455C41.0024 17.5175 40.3352 17.6537 39.4716 17.6537H38.8109ZM45.5358 17.9321C46.0789 18.6062 46.9358 18.943 48.1003 18.943C49.0685 18.943 49.8797 18.7683 50.5208 18.4248C50.6582 18.3471 50.6975 18.2497 50.6516 18.1331L50.3704 17.4657C50.3115 17.3232 50.2133 17.2843 50.076 17.3491C49.5068 17.6019 48.9507 17.7248 48.4143 17.7248C47.6816 17.7248 47.1648 17.5305 46.8638 17.1481C46.5629 16.7657 46.3863 16.2279 46.3405 15.5283H50.6582C50.7694 15.5283 50.8414 15.5086 50.8806 15.4698C50.9199 15.4309 50.9395 15.2107 50.9395 14.8024C50.9395 13.9406 50.7432 13.1825 50.3507 12.5214C50.1414 12.178 49.8469 11.9122 49.461 11.7115C49.0751 11.5105 48.6106 11.4132 48.0742 11.4132C46.9882 11.4132 46.1574 11.7763 45.5817 12.5018C45.006 13.2277 44.7181 14.1479 44.7181 15.2559C44.7181 16.3641 44.9929 17.2584 45.5358 17.9321ZM49.4087 14.4526H46.3536C46.3732 13.9665 46.5041 13.5453 46.7461 13.1825C46.9816 12.8194 47.3937 12.638 47.9695 12.638C48.9507 12.638 49.4283 13.2406 49.4087 14.4526ZM56.2059 14.4526V13.9406C56.2059 13.2536 56.0097 12.8194 55.6172 12.6447C55.4341 12.5666 55.1593 12.5277 54.8126 12.5277C54.1452 12.5277 53.7462 12.839 53.6088 13.4609C53.5826 13.6034 53.5041 13.6812 53.3864 13.6812H52.4443C52.2873 13.6812 52.2219 13.6101 52.2416 13.4609C52.2808 12.7547 52.5687 12.2364 53.1051 11.9058C53.6415 11.5753 54.3284 11.4132 55.1593 11.4132C56.9125 11.4132 57.7891 12.2105 57.7891 13.7981V17.6212H58.4171C58.5611 17.6212 58.6396 17.6926 58.6396 17.8414V18.5544C58.6396 18.6969 58.5676 18.7746 58.4171 18.7746H56.6835C56.5592 18.7746 56.4807 18.7035 56.4611 18.5544L56.3564 17.887C55.8265 18.5932 55.0677 18.9497 54.0668 18.9497C53.4387 18.9497 52.9219 18.7876 52.5098 18.4637C52.0977 18.1397 51.8948 17.6212 51.8948 16.9019C51.8948 15.9625 52.2939 15.3143 53.0855 14.9708C53.7396 14.6728 54.5247 14.5044 55.4341 14.4785C55.5414 14.4712 55.6698 14.468 55.8203 14.4642H55.8204C55.9358 14.4613 56.0641 14.4582 56.2059 14.4526ZM56.2321 16.5781V15.4568C55.2901 15.4568 54.7144 15.5024 54.4985 15.5864C54.2826 15.6708 54.0929 15.7615 53.9228 15.8458C53.6088 16.0076 53.4518 16.3123 53.4518 16.7465C53.4518 17.4139 53.8378 17.7507 54.6097 17.7507C55.12 17.7507 55.5125 17.6341 55.8004 17.3942C56.0882 17.161 56.2321 16.889 56.2321 16.5781ZM67.2157 17.6212H66.5811V11.7826C66.5811 11.6338 66.5026 11.5623 66.3587 11.5623H64.0101C63.8596 11.5623 63.7877 11.64 63.7877 11.7826V12.5407C63.7877 12.6898 63.8662 12.7613 64.0101 12.7613H64.9325V16.2216C64.9325 16.591 64.769 16.9215 64.4484 17.2129C64.1278 17.5046 63.7223 17.6471 63.2251 17.6471C62.7344 17.6471 62.4073 17.5241 62.2569 17.2776C62.1064 17.0315 62.0279 16.6169 62.0279 16.0335V11.7892C62.0279 11.64 61.9494 11.569 61.8055 11.569H59.6008C59.4504 11.569 59.3784 11.6467 59.3784 11.7892V12.5473C59.3784 12.6965 59.4569 12.7676 59.6008 12.7676H60.3793V16.4744C60.3793 18.1202 61.1709 18.943 62.754 18.943C63.7746 18.943 64.5924 18.5414 65.2203 17.7378L65.3512 18.5544C65.3839 18.7035 65.4559 18.7746 65.5736 18.7746H67.2157C67.3661 18.7746 67.4381 18.6969 67.4381 18.5544V17.8414C67.4381 17.6926 67.3596 17.6212 67.2157 17.6212ZM70.7941 12.7742V16.4289C70.7941 16.8827 70.8533 17.2129 70.971 17.4205C71.0887 17.6212 71.3109 17.7248 71.6313 17.7248C71.9524 17.7248 72.2665 17.66 72.5737 17.5241C72.6789 17.4853 72.7569 17.5241 72.8091 17.6407L73.071 18.3082C73.0773 18.3341 73.0842 18.3793 73.0842 18.4311C73.0842 18.4832 73.032 18.5414 72.94 18.5998C72.4692 18.8331 71.9127 18.9497 71.2656 18.9497C70.395 18.9497 69.8196 18.7294 69.5448 18.2823C69.3486 17.9906 69.2374 17.7119 69.2046 17.4398C69.1654 17.0704 69.1458 16.6817 69.1458 16.28V12.7742H68.3084C68.1645 12.7742 68.0859 12.7028 68.0859 12.554V11.7956C68.0859 11.653 68.158 11.5753 68.3084 11.5753H69.1458V9.61191C69.1458 9.46941 69.2177 9.39168 69.3682 9.39168H70.5719C70.7161 9.39168 70.7941 9.46279 70.7941 9.61191V11.5753H72.2791C72.4232 11.5753 72.5019 11.6467 72.5019 11.7956V12.554C72.5019 12.6965 72.4295 12.7742 72.2791 12.7742H70.7941ZM90.9896 17.6212H90.3551V11.7826C90.3551 11.6338 90.2764 11.5623 90.1322 11.5623H87.7835C87.6331 11.5623 87.5613 11.64 87.5613 11.7826V12.5407C87.5613 12.6898 87.64 12.7613 87.7835 12.7613H88.7064V16.2216C88.7064 16.591 88.5427 16.9215 88.2223 17.2129C87.9019 17.5046 87.4959 17.6471 86.9986 17.6471C86.5082 17.6471 86.1808 17.5241 86.0304 17.2776C85.8799 17.0315 85.8019 16.6169 85.8019 16.0335V11.7892C85.8019 11.64 85.7232 11.569 85.5791 11.569H83.3746C83.2241 11.569 83.1524 11.6467 83.1524 11.7892V12.5473C83.1524 12.6965 83.2304 12.7676 83.3746 12.7676H84.1533V16.4744C84.1533 18.1202 84.9445 18.943 86.5277 18.943C87.5481 18.943 88.3658 18.5414 88.9941 17.7378L89.125 18.5544C89.1578 18.7035 89.2295 18.7746 89.3472 18.7746H90.9896C91.1401 18.7746 91.2118 18.6969 91.2118 18.5544V17.8414C91.2118 17.6926 91.1331 17.6212 90.9896 17.6212ZM94.6721 8.14094V17.6212H95.595C95.7385 17.6212 95.8172 17.6926 95.8172 17.8414V18.5544C95.8172 18.6969 95.7454 18.7746 95.595 18.7746H92.1012C91.9578 18.7746 91.8791 18.7035 91.8791 18.5544V17.8414C91.8791 17.6989 91.9508 17.6212 92.1012 17.6212H93.0241V9.11927H92.2322C92.0887 9.11927 92.01 9.04815 92.01 8.89903V8.14094C92.01 7.99836 92.0817 7.92063 92.2322 7.92063H94.4562C94.6003 7.92697 94.6721 7.99836 94.6721 8.14094ZM104.917 18.7683H105.885C106.036 18.7683 106.14 18.7035 106.199 18.5673L109.091 11.4135V17.6212H108.208C108.057 17.6212 107.985 17.6989 107.985 17.8414V18.5544C107.985 18.7035 108.064 18.7746 108.208 18.7746H111.439C111.59 18.7746 111.662 18.6969 111.662 18.5544V17.8414C111.662 17.6926 111.583 17.6212 111.439 17.6212H110.661V10.0784H111.439C111.59 10.0784 111.662 10.0006 111.662 9.85806V9.11927C111.662 8.97042 111.583 8.89903 111.439 8.89903H108.986C108.829 8.89903 108.731 8.9638 108.692 9.09997L105.598 16.9086L102.575 9.09997C102.536 8.9638 102.438 8.89903 102.28 8.89903H99.7093C99.5589 8.89903 99.4871 8.97676 99.4871 9.11927V9.85806C99.4871 10.0073 99.5658 10.0784 99.7093 10.0784H100.488V17.6212H99.7093C99.5589 17.6212 99.4871 17.6989 99.4871 17.8414V18.5544C99.4871 18.7035 99.5658 18.7746 99.7093 18.7746H102.686C102.837 18.7746 102.908 18.6969 102.908 18.5544V17.8414C102.908 17.6926 102.83 17.6212 102.686 17.6212H101.763V11.4002L104.609 18.5673C104.669 18.7035 104.773 18.7683 104.917 18.7683ZM115.266 17.6212H116.189C116.332 17.6212 116.411 17.6926 116.411 17.8414V18.5544C116.411 18.6969 116.339 18.7746 116.189 18.7746H112.695C112.551 18.7746 112.473 18.7035 112.473 18.5544V17.8414C112.473 17.6989 112.545 17.6212 112.695 17.6212H113.617V12.7676H112.826C112.682 12.7676 112.604 12.6965 112.604 12.5473V11.7892C112.604 11.6467 112.676 11.5686 112.826 11.5686H115.044C115.188 11.5686 115.266 11.64 115.266 11.7892V17.6212ZM113.493 10.2793C113.31 10.085 113.212 9.83849 113.212 9.54052C113.212 9.24248 113.31 8.98972 113.5 8.7887C113.69 8.58803 113.945 8.49073 114.265 8.49073C114.586 8.49073 114.841 8.58803 115.031 8.7887C115.221 8.98972 115.319 9.23586 115.319 9.54052C115.319 9.83849 115.221 10.0913 115.024 10.2793C114.828 10.4736 114.573 10.571 114.253 10.571C113.931 10.571 113.677 10.4736 113.493 10.2793ZM116.928 11.7892V12.5603C116.928 12.6965 117 12.7676 117.156 12.7742H117.948V17.6279H117.17C117.019 17.6279 116.947 17.7056 116.947 17.8481V18.561C116.947 18.7098 117.025 18.7813 117.17 18.7813H120.5C120.65 18.7813 120.722 18.7035 120.722 18.561V17.8481C120.722 17.6989 120.644 17.6279 120.5 17.6279H119.59V14.2842C119.59 13.9147 119.754 13.5842 120.074 13.2925C120.395 13.0008 120.801 12.8583 121.292 12.8583C121.782 12.8583 122.102 13.0008 122.259 13.2795C122.416 13.5582 122.495 14.0054 122.495 14.6144V17.6212H121.788C121.638 17.6212 121.566 17.6989 121.566 17.8414V18.5544C121.566 18.7035 121.645 18.7746 121.788 18.7746H124.987C125.138 18.7746 125.21 18.6969 125.21 18.5544V17.8414C125.21 17.6926 125.131 17.6212 124.987 17.6212H124.137V13.8822C124.137 12.2364 123.378 11.4132 121.86 11.4132C120.84 11.4132 120.062 11.8151 119.512 12.6317L119.381 11.7892C119.348 11.6401 119.27 11.569 119.146 11.569H117.15C117 11.569 116.928 11.6467 116.928 11.7892ZM132.687 17.6212H133.316C133.459 17.6212 133.538 17.6926 133.538 17.8418V18.5544C133.538 18.6969 133.465 18.7746 133.316 18.7746H131.654C131.53 18.7746 131.45 18.7035 131.431 18.5544L131.313 17.6989C130.816 18.5351 130.018 18.9497 128.919 18.9497C127.957 18.9497 127.218 18.6517 126.701 18.0554C126.185 17.4594 125.923 16.5325 125.923 15.2754C125.923 14.0184 126.224 13.0659 126.825 12.4048C127.427 11.7437 128.206 11.4135 129.155 11.4135C129.586 11.4135 129.965 11.4913 130.3 11.6531C130.633 11.8151 130.875 12.0032 131.032 12.2298V9.13222H130.254C130.109 9.13222 130.031 9.06111 130.031 8.91198V8.14094C130.031 7.99836 130.103 7.92063 130.254 7.92063H132.458C132.602 7.92063 132.68 7.99174 132.68 8.14094V17.6212H132.687ZM131.045 16.0402V13.4805C130.921 13.2862 130.698 13.1048 130.378 12.9427C130.057 12.7806 129.737 12.6965 129.416 12.6965C128.206 12.6965 127.597 13.5128 127.597 15.1393C127.597 16.39 127.872 17.1677 128.422 17.4787C128.657 17.6149 128.978 17.6797 129.39 17.6797C129.802 17.6797 130.181 17.5305 130.528 17.2258C130.868 16.9279 131.045 16.5325 131.045 16.0402ZM137.444 11.4132C136.685 11.4132 136.05 11.6271 135.553 12.0547C135.055 12.4825 134.801 13.0138 134.801 13.6619C134.801 14.1543 134.925 14.5562 135.174 14.8609C135.422 15.1652 135.73 15.3791 136.089 15.5024C136.449 15.619 136.809 15.7289 137.169 15.8262C137.522 15.9236 137.83 16.0594 138.078 16.2409C138.326 16.4159 138.451 16.6621 138.451 16.9733C138.451 17.5823 138.013 17.887 137.143 17.887C136.652 17.887 136.272 17.7896 136.011 17.5953L136.056 16.8372C136.07 16.688 135.998 16.6169 135.854 16.6169H135.003C134.853 16.6169 134.781 16.6947 134.781 16.8372V18.373C134.781 18.5221 134.847 18.6128 134.97 18.6517C135.691 18.8461 136.384 18.943 137.038 18.943C137.973 18.943 138.706 18.7424 139.223 18.3274C139.74 17.9129 140.001 17.3424 140.001 16.604C140.001 16.1179 139.877 15.7226 139.622 15.405C139.373 15.0941 139.06 14.8671 138.693 14.7376C138.326 14.608 137.961 14.4914 137.601 14.3878C137.24 14.2842 136.933 14.1479 136.678 13.9858C136.423 13.824 136.299 13.5971 136.299 13.3184C136.299 12.7742 136.685 12.5018 137.47 12.5018C137.823 12.5018 138.143 12.5796 138.438 12.7354L138.366 13.4739C138.333 13.623 138.399 13.6945 138.555 13.6945H139.406C139.556 13.6945 139.628 13.6164 139.628 13.4739V11.9317C139.628 11.7956 139.563 11.7115 139.425 11.6726C138.87 11.4975 138.209 11.4132 137.444 11.4132Z" fill="#333333"/>
</g>
<defs>
<clipPath id="clip0_5120_10264">
<rect width="140" height="26.4677" fill="white"/>
</clipPath>
</defs>
</svg>
