<svg width="140" height="34" viewBox="0 0 140 34" fill="none" xmlns="http://www.w3.org/2000/svg">
<path d="M12.4318 7.698V8.98602C13.9998 9.26602 15.1758 10.61 15.1758 12.262C15.1758 12.934 14.9518 13.606 14.5598 14.166L15.4838 15.09C16.0998 14.278 16.4638 13.298 16.4638 12.262C16.4638 9.91 14.6998 7.97805 12.4318 7.698Z" fill="#25C7E5"/>
<path d="M12.4318 10.162V12.01L13.7478 13.3259C13.9438 12.99 14.0278 12.6259 14.0278 12.2619C14.0278 11.254 13.3558 10.414 12.4318 10.162Z" fill="#25C7E5"/>
<path d="M11.284 0.446089C4.98398 0.75409 0 5.96208 0 12.318C0 19.2901 11.228 32.87 11.228 32.87C11.536 33.346 12.292 33.346 12.6 32.87C12.6 32.87 17.108 27.41 20.412 21.614L11.284 12.486V0.446089Z" fill="#25C7E5"/>
<path d="M12.4318 2.826V4.11399C16.6598 4.42199 20.0198 7.94998 20.0198 12.2619C20.0198 14.25 19.3198 16.126 18.0038 17.61L18.8998 18.506C20.4397 16.7699 21.2798 14.586 21.2798 12.234C21.3077 7.22199 17.3598 3.13399 12.4318 2.826Z" fill="#25C7E5"/>
<path d="M22.4557 12.262C22.4557 14.8939 21.4758 17.3859 19.7397 19.3459L20.9998 20.6059C22.6238 17.6099 23.8277 14.6139 23.8277 12.346C23.8277 5.90595 18.7597 0.697971 12.4318 0.417969V1.67797C18.0038 1.98597 22.4557 6.60596 22.4557 12.262Z" fill="#25C7E5"/>
<path d="M12.4318 5.262V6.54997C15.3438 6.83002 17.6118 9.29397 17.6118 12.262C17.6118 13.606 17.1638 14.866 16.3238 15.902L17.2477 16.826C18.3398 15.566 18.9277 13.97 18.9277 12.29C18.8718 8.56598 16.0438 5.54199 12.4318 5.262Z" fill="#25C7E5"/>
<path d="M42.7843 12.2621C42.5043 11.2821 42.0003 9.43405 39.1723 9.43405C37.5203 9.43405 35.1123 10.526 35.1123 15.146C35.1123 18.086 36.2883 20.718 39.1723 20.718C41.0763 20.718 42.3923 19.654 42.7843 17.638H46.2003C45.5283 21.194 43.2043 23.686 39.0883 23.686C34.7483 23.686 31.6124 20.746 31.6124 15.0901C31.6124 9.37803 34.9163 6.43804 39.1443 6.43804C44.0443 6.43804 46.0323 9.79804 46.2003 12.234H42.7843V12.2621Z" fill="#105783"/>
<path d="M58.9397 23.266H55.7479V15.902C55.7479 15.006 55.6918 13.522 53.6758 13.522C52.2762 13.522 51.1557 14.474 51.1557 16.322V23.266H47.9639V6.91402H51.1557V12.738H51.2118C51.6321 11.73 52.9763 10.834 54.7118 10.834C57.092 10.834 58.9397 12.234 58.9397 14.894V23.266Z" fill="#105783"/>
<path d="M61.2919 11.142H64.3439V13.242H64.4C65.0718 12.01 65.7996 10.8341 67.7318 10.8341C67.9277 10.8341 68.1515 10.862 68.3475 10.89V14.138C68.0677 14.082 67.7318 14.082 67.4236 14.082C64.9319 14.082 64.4838 15.622 64.4838 16.966V23.294H61.2919V11.142Z" fill="#105783"/>
<path d="M74.6484 23.602C71.3999 23.602 68.4601 21.586 68.4601 17.218C68.4601 12.85 71.3999 10.8341 74.6484 10.8341C77.8964 10.8341 80.8362 12.85 80.8362 17.218C80.8362 21.586 77.9241 23.602 74.6484 23.602ZM74.6484 13.522C72.1844 13.522 71.7364 15.678 71.7364 17.218C71.7364 18.758 72.1844 20.914 74.6484 20.914C77.1118 20.914 77.5599 18.758 77.5599 17.218C77.5882 15.65 77.1118 13.522 74.6484 13.522Z" fill="#105783"/>
<path d="M93.4919 23.266H90.3V15.902C90.3 15.006 90.2439 13.522 88.228 13.522C86.8277 13.522 85.7079 14.474 85.7079 16.322V23.266H82.516V11.142H85.568V12.934H85.6241C86.0438 12.206 86.9676 10.8341 89.264 10.8341C91.6436 10.8341 93.4919 12.234 93.4919 14.894V23.266Z" fill="#105783"/>
<path d="M101.361 23.602C98.1125 23.602 95.1727 21.586 95.1727 17.218C95.1727 12.85 98.1125 10.8341 101.361 10.8341C104.608 10.8341 107.548 12.85 107.548 17.218C107.548 21.586 104.637 23.602 101.361 23.602ZM101.361 13.522C98.8965 13.522 98.4484 15.678 98.4484 17.218C98.4484 18.758 98.8965 20.914 101.361 20.914C103.825 20.914 104.273 18.758 104.273 17.218C104.3 15.65 103.825 13.522 101.361 13.522Z" fill="#105783"/>
<path d="M112.813 11.142H114.8V13.4099H112.813V19.9899C112.813 20.6899 112.84 20.9699 114.128 20.9699C114.324 20.9699 114.548 20.9419 114.8 20.914V23.322C114.296 23.3499 113.793 23.378 113.288 23.378H112.868C110.097 23.378 109.62 22.342 109.62 20.746V13.438H107.968V11.17H109.62V7.86598H112.813V11.142Z" fill="#105783"/>
<path d="M126.98 19.7099C126.14 22.6219 123.732 23.5739 121.66 23.5739C118.244 23.5739 115.612 21.9219 115.612 16.9379C115.612 15.4819 116.117 10.8059 121.437 10.8059C123.816 10.8059 127.149 11.9539 127.149 17.4979V18.0579H118.832C118.916 18.9819 119.112 21.0259 121.688 21.0259C122.584 21.0259 123.48 20.5779 123.732 19.7099H126.98ZM123.844 16.0139C123.648 14.054 122.416 13.4659 121.38 13.4659C119.868 13.4659 119.084 14.4179 118.888 16.0139H123.844Z" fill="#105783"/>
<path d="M131.964 23.266H128.772V6.91402H131.964V15.762L135.967 11.142H139.888L135.604 15.846L140 23.266H136.163L133.28 18.086L131.964 19.43V23.266Z" fill="#105783"/>
</svg>
