<svg width="176" height="34" viewBox="0 0 176 34" fill="none" xmlns="http://www.w3.org/2000/svg">
<g clip-path="url(#clip0_3601_3297)">
<path d="M28.6205 23.249C29.6998 23.249 31.4986 23.249 32.418 23.249C32.7777 23.249 33.1375 23.011 33.2574 22.6539C33.8969 20.8686 34.2567 18.9643 34.2567 16.9806C34.2567 14.997 33.8969 13.0927 33.2574 11.3074C33.1375 10.9503 32.7777 10.7123 32.418 10.7123H28.6205C28.1009 10.7123 27.7012 11.109 27.7012 11.6248C27.7012 14.3622 27.7012 19.6784 27.7012 22.2969C27.7012 22.8523 28.1009 23.249 28.6205 23.249Z" fill="#4D94FF"/>
<path d="M24.9037 21.8214H21.9057C21.3861 21.8214 20.9863 21.4247 20.9863 20.9089V13.0933C20.9863 12.5775 21.3861 12.1808 21.9057 12.1808H24.9037C25.4233 12.1808 25.823 12.5775 25.823 13.0933V20.9089C25.823 21.385 25.3833 21.8214 24.9037 21.8214Z" fill="#0066FF"/>
<path d="M18.1878 20.3539H15.1899C14.6702 20.3539 14.2705 19.9572 14.2705 19.4415V14.522C14.2705 14.0062 14.6702 13.6095 15.1899 13.6095H18.1878C18.7075 13.6095 19.1072 14.0062 19.1072 14.522V19.4415C19.1072 19.9572 18.6675 20.3539 18.1878 20.3539Z" fill="#0066FF"/>
<path d="M23.7041 26.9395C21.7055 28.2488 19.2271 29.0026 16.6289 28.8835C10.5531 28.6455 5.55647 23.8054 5.15674 17.775C4.71704 10.8719 10.2333 5.11924 17.1086 5.11924C19.5469 5.11924 21.7854 5.83336 23.7041 7.1029C24.3437 7.49964 25.0632 7.77735 25.8226 7.77735H29.66C30.4195 7.77735 30.8592 6.90454 30.3795 6.30944C27.1018 2.26276 22.0252 -0.236653 16.3891 0.00138711C7.51513 0.39812 0.360008 7.53931 0.000253134 16.3468C-0.359502 26.0271 7.43518 34.0014 17.1086 34.0014C22.4649 34.0014 27.2217 31.5813 30.3795 27.733C30.8592 27.1379 30.4195 26.2651 29.66 26.2651H25.8226C25.0632 26.2651 24.3437 26.5031 23.7041 26.9395Z" fill="#0066FF"/>
<path d="M40.8926 17.0208C40.8926 11.9823 44.2103 8.17366 49.2869 8.17366C51.2855 8.17366 52.9244 8.72909 54.1635 9.68124C55.6425 10.7921 56.4819 12.4584 56.7218 14.3627H52.4847C52.2848 12.8551 51.0856 11.7046 49.2469 11.7046C46.4888 11.7046 45.1697 14.0056 45.1697 17.0605C45.1697 20.155 46.7286 22.4164 49.2869 22.4164C51.1656 22.4164 52.4047 21.2262 52.6046 19.5996H56.8417C56.7218 21.2658 55.9623 22.8131 54.8031 23.924C53.484 25.1935 51.7652 25.8283 49.3268 25.8283C44.2903 25.7886 40.8926 22.099 40.8926 17.0208Z" fill="#222237"/>
<path d="M57.7607 19.4019C57.7607 15.752 60.3989 12.9748 64.2763 12.9748C68.1936 12.9748 70.7919 15.752 70.7919 19.4019C70.7919 23.0518 68.2336 25.7893 64.3163 25.7893C60.3989 25.7893 57.7607 23.0518 57.7607 19.4019ZM66.8745 19.4019C66.8745 17.2199 65.9552 15.7123 64.2763 15.7123C62.5974 15.7123 61.718 17.2199 61.718 19.4019C61.718 21.5839 62.5974 23.0518 64.2763 23.0518C65.9552 23.0518 66.8745 21.5839 66.8745 19.4019Z" fill="#222237"/>
<path d="M72.1113 13.292H75.8688V14.9583H75.9487C76.8681 13.6491 78.0273 12.935 79.7062 12.935C82.3843 12.935 83.9433 14.8393 83.9433 17.5371V25.4321H80.0659V18.3305C80.0659 17.061 79.4263 16.1882 78.1472 16.1882C76.8681 16.1882 75.9887 17.2594 75.9887 18.7273V25.4321H72.1113V13.292Z" fill="#222237"/>
<path d="M86.3421 15.7923H84.7432V13.3326H86.3421V12.4597C86.3421 11.4282 86.5819 10.5951 87.0616 10.0397C88.0209 8.69078 90.1795 8.3734 92.4979 8.61144V11.3489C91.0589 11.3092 90.2194 11.4282 90.2194 12.7771V13.3722H92.4979V15.832H90.2194V25.4726H86.3421V15.7923ZM93.737 8.49242H97.6144V11.6266H93.737V8.49242ZM93.737 13.2929H97.6144V25.3932H93.737V13.2929Z" fill="#222237"/>
<path d="M98.9326 19.3629C98.9326 15.5939 101.131 12.9358 104.289 12.9358C106.008 12.9358 106.967 13.6499 107.687 14.6814H107.767V8.49242H111.644V25.3932H107.926V23.8063H107.887C107.167 25.0758 105.888 25.8296 104.289 25.8296C101.171 25.79 98.9326 23.4096 98.9326 19.3629ZM107.847 19.3629C107.847 17.3396 107.007 15.8716 105.328 15.8716C103.769 15.8716 102.89 17.2999 102.89 19.3232C102.89 21.4259 103.809 22.7351 105.288 22.7351C106.887 22.7351 107.847 21.3466 107.847 19.3629Z" fill="#222237"/>
<path d="M112.964 19.3622C112.964 15.752 115.522 12.9748 119.24 12.9748C120.998 12.9748 122.357 13.5303 123.397 14.4824C124.836 15.7916 125.555 17.8943 125.555 20.3937H116.761C117.001 22.0203 117.92 23.0519 119.519 23.0519C120.559 23.0519 121.198 22.6154 121.558 21.8617H125.355C125.076 22.9328 124.396 24.004 123.317 24.7181C122.278 25.4322 121.038 25.829 119.519 25.829C115.442 25.7893 112.964 23.0122 112.964 19.3622ZM121.598 18.053C121.438 16.6248 120.559 15.6726 119.28 15.6726C117.801 15.6726 117.041 16.5851 116.761 18.053H121.598Z" fill="#222237"/>
<path d="M126.874 13.292H130.631V14.9583H130.711C131.631 13.6491 132.79 12.935 134.469 12.935C137.147 12.935 138.706 14.8393 138.706 17.5371V25.4321H134.829V18.3305C134.829 17.061 134.189 16.1882 132.91 16.1882C131.631 16.1882 130.751 17.2594 130.751 18.7273V25.4321H126.874V13.292Z" fill="#222237"/>
<path d="M139.905 19.4019C139.905 15.752 142.424 12.9748 146.301 12.9748C149.619 12.9748 151.737 14.8792 152.097 17.6166H148.34C148.1 16.5454 147.42 15.8313 146.341 15.8313C144.662 15.8313 143.823 17.2199 143.823 19.4019C143.823 21.5443 144.662 22.9328 146.341 22.9328C147.54 22.9328 148.3 22.2187 148.459 20.8698H152.177C152.097 23.6469 149.858 25.829 146.381 25.829C142.464 25.7893 139.905 23.0519 139.905 19.4019Z" fill="#222237"/>
<path d="M153.416 8.49242H157.293V11.6266H153.416V8.49242ZM153.416 13.2929H157.293V25.3932H153.416V13.2929Z" fill="#222237"/>
<path d="M158.572 22.06C158.572 19.4019 160.731 18.5688 163.249 18.2514C165.528 17.9737 166.367 17.7356 166.367 16.9025C166.367 16.109 165.847 15.5933 164.688 15.5933C163.449 15.5933 162.809 16.1487 162.689 17.1405H159.132C159.212 14.8792 160.971 12.9748 164.648 12.9748C166.487 12.9748 167.726 13.2922 168.605 13.9667C169.645 14.7205 170.164 15.9107 170.164 17.4182V23.5279C170.164 24.4801 170.244 25.0355 170.604 25.2736V25.4322H166.847C166.647 25.1545 166.527 24.7181 166.447 24.0834H166.407C165.687 25.1149 164.608 25.7496 162.769 25.7496C160.331 25.7496 158.572 24.4404 158.572 22.06ZM166.447 21.1079V19.6796C165.927 19.9573 165.248 20.116 164.448 20.3144C162.929 20.6318 162.33 21.0285 162.33 21.941C162.33 22.8932 163.049 23.2899 164.009 23.2899C165.448 23.2899 166.447 22.4171 166.447 21.1079Z" fill="#222237"/>
<path d="M172.083 8.49242H176V25.3932H172.083V8.49242Z" fill="#222237"/>
</g>
<defs>
<clipPath id="clip0_3601_3297">
<rect width="176" height="34" fill="white"/>
</clipPath>
</defs>
</svg>
