<svg version="1.1" id="Layer_1" xmlns="http://www.w3.org/2000/svg" xmlns:xlink="http://www.w3.org/1999/xlink" x="0px" y="0px"
	 width="100%" viewBox="0 0 675 188" enable-background="new 0 0 675 188" xml:space="preserve">
<path fill="#FDFDFD" opacity="1.000000" stroke="none" 
	d="
M449.000000,189.000000 
	C299.333344,189.000000 150.166702,189.000000 1.000040,189.000000 
	C1.000027,126.333359 1.000027,63.666718 1.000013,1.000057 
	C225.999939,1.000038 450.999878,1.000038 675.999878,1.000019 
	C675.999878,63.666607 675.999878,126.333214 675.999939,188.999908 
	C600.500000,189.000000 525.000000,189.000000 449.000000,189.000000 
M649.943054,111.499992 
	C649.944031,120.995529 649.947632,130.491074 649.945435,139.986603 
	C649.942932,150.661743 646.141052,154.476944 635.576904,154.473419 
	C609.089355,154.464569 582.601868,154.470413 556.114319,154.470367 
	C554.167358,154.470367 552.220398,154.470367 550.406799,154.470367 
	C548.936218,159.418243 552.207703,158.528320 554.504822,158.531342 
	C581.991760,158.567429 609.478699,158.593536 636.965576,158.558762 
	C647.885620,158.544952 654.010071,152.398056 654.016846,141.556442 
	C654.035828,111.237396 654.026245,80.918327 654.022766,50.599274 
	C654.021301,37.815464 648.245911,32.060265 635.425537,32.059410 
	C599.109314,32.056992 562.793091,32.057812 526.476868,32.057480 
	C509.651459,32.057327 492.826050,32.047028 476.000641,32.065292 
	C472.124664,32.069504 472.124725,32.114777 472.595215,36.124886 
	C473.878876,36.124886 475.193481,36.124851 476.508087,36.124889 
	C529.649719,36.126358 582.791321,36.118408 635.932983,36.137764 
	C645.812561,36.141361 649.944946,40.293266 649.944214,50.028465 
	C649.942688,70.185638 649.943359,90.342812 649.943054,111.499992 
M42.613838,153.274445 
	C30.062155,153.171722 27.044374,150.113373 27.046408,137.537674 
	C27.051069,108.711380 27.046730,79.885094 27.048355,51.058800 
	C27.048925,40.933113 31.043917,36.976006 41.276196,36.975418 
	C94.763130,36.972336 148.250061,36.972351 201.737000,36.971294 
	C202.701828,36.971275 203.666656,36.971291 204.988739,36.971291 
	C204.833664,35.375534 204.720367,34.209782 204.601425,32.985970 
	C149.708893,32.985970 95.226166,32.981155 40.743443,32.989731 
	C28.767509,32.991615 22.988617,38.778885 22.985403,50.748211 
	C22.977484,80.240967 22.981071,109.733719 22.985466,139.226471 
	C22.987310,151.609085 28.630526,157.320541 40.880882,157.321793 
	C67.874260,157.324539 94.867630,157.314865 121.861008,157.310318 
	C123.477699,157.310043 125.094391,157.310272 126.616737,157.310272 
	C128.043472,152.529266 124.938614,153.286194 122.564095,153.285202 
	C96.237198,153.274094 69.910301,153.276306 42.613838,153.274445 
M270.006500,99.499451 
	C270.006500,91.054535 270.006500,82.609612 270.006500,74.169914 
	C266.029419,74.169914 262.501526,74.169914 258.547607,74.169914 
	C258.547607,82.525116 258.547607,90.532043 258.547607,99.436081 
	C253.106384,92.523964 247.735580,86.731987 243.603012,80.161247 
	C239.485458,73.614365 234.133606,72.909340 227.161209,74.308350 
	C227.161209,86.261513 227.161469,98.206871 227.161148,110.152237 
	C227.160889,120.255768 227.160706,120.259125 237.175400,119.946663 
	C237.453766,119.937965 237.724045,119.669708 238.351151,119.332817 
	C238.351151,111.014793 238.351151,102.515297 238.351151,93.973656 
	C238.866058,94.055511 239.089706,94.023071 239.159927,94.111908 
	C244.717545,101.143066 250.541595,107.987457 255.697861,115.302498 
	C258.476379,119.244316 261.609894,120.364075 266.143524,120.128891 
	C269.283752,119.965988 270.152222,118.934341 270.048737,115.979042 
	C269.868195,110.824890 270.003540,105.659676 270.006500,99.499451 
M145.411102,74.913361 
	C134.257584,70.825844 122.655190,73.523788 115.884674,81.779259 
	C109.829826,89.162064 108.973335,100.816528 113.888733,108.938240 
	C119.685318,118.515953 130.138840,122.634598 142.005661,120.016212 
	C151.170670,117.993973 158.751801,109.901245 159.977890,100.831146 
	C161.518143,89.437248 157.118591,81.239464 145.411102,74.913361 
M367.986176,100.457100 
	C373.181152,96.650505 375.383636,91.585205 374.010620,85.250931 
	C372.773926,79.545715 369.068359,75.042679 363.515839,74.556892 
	C353.880035,73.713844 344.117188,74.322693 334.435760,74.322693 
	C334.435760,89.615028 334.435760,104.659195 334.435760,119.755638 
	C338.317810,119.755638 341.898346,119.755638 346.016937,119.755638 
	C346.016937,114.127533 346.016937,108.745148 346.016937,103.743698 
	C352.349396,101.639908 355.537537,104.224083 357.457184,109.552689 
	C358.459137,112.333984 359.978485,114.969925 361.567017,117.479828 
	C362.256836,118.569794 363.654480,119.783241 364.826050,119.889565 
	C368.320374,120.206688 371.861938,120.003410 375.958496,120.003410 
	C372.750610,114.122414 369.922485,109.083824 367.284637,103.947517 
	C366.878693,103.157043 367.347778,101.917152 367.986176,100.457100 
M594.850952,109.980774 
	C594.112671,107.363052 593.374451,104.745338 592.412476,101.334526 
	C599.119385,101.334526 604.373596,101.334526 609.534241,101.334526 
	C609.534241,97.900246 609.534241,94.985130 609.534241,91.624130 
	C603.956299,91.624130 598.704956,91.624130 593.371338,91.624130 
	C593.371338,88.903091 593.371338,86.638100 593.371338,83.842194 
	C601.601990,83.842194 609.662170,83.842194 617.747192,83.842194 
	C617.747192,80.228889 617.747192,77.152641 617.747192,74.126297 
	C605.589661,74.126297 593.703674,74.126297 581.811523,74.126297 
	C581.811523,89.507805 581.811523,104.576126 581.811523,119.765625 
	C594.124329,119.765625 606.043579,119.765625 617.938232,119.765625 
	C617.938232,116.447083 617.938232,113.380394 617.938232,109.987267 
	C610.384155,109.987267 603.087769,109.987267 594.850952,109.980774 
M202.495819,82.578560 
	C202.358459,89.059479 202.458649,95.557037 202.006271,102.015892 
	C201.663345,106.912270 197.774658,109.973671 192.841522,109.991730 
	C188.481354,110.007690 184.343521,106.751991 183.888748,102.219734 
	C183.408981,97.438606 183.567825,92.590103 183.515747,87.770302 
	C183.466354,83.200287 183.505127,78.629311 183.505127,73.978271 
	C179.324173,73.978271 175.877884,73.978271 171.994003,73.978271 
	C171.994003,83.073601 171.937164,92.010124 172.008301,100.945625 
	C172.098724,112.302132 179.133911,119.679123 190.831528,120.825745 
	C202.026031,121.923050 212.153412,115.666306 213.374252,105.081863 
	C214.558197,94.817192 213.631042,84.309029 213.631042,74.014740 
	C209.877350,74.014740 206.410095,74.014740 202.496109,74.014740 
	C202.496109,76.677711 202.496109,79.142868 202.495819,82.578560 
M58.587212,93.165596 
	C56.873444,104.541023 62.918854,115.005249 73.508865,118.994041 
	C84.143692,122.999718 96.790436,119.757042 102.190315,111.430893 
	C99.868736,109.211273 97.502571,106.949028 95.151558,104.701263 
	C86.581146,111.123459 79.560890,111.545555 74.059868,106.044983 
	C69.351929,101.337433 68.848663,93.459785 73.433601,88.409302 
	C75.216576,86.445290 77.903519,84.810944 80.468773,84.146660 
	C86.468712,82.592949 91.221413,85.779137 95.477783,89.755318 
	C98.072014,86.887001 100.378151,84.337227 102.660805,81.813416 
	C95.434273,73.972618 86.466034,71.258896 76.683167,73.830597 
	C66.983131,76.380516 60.758984,82.342285 58.587212,93.165596 
M536.530579,120.005875 
	C538.817749,120.005875 541.104919,120.005875 543.840210,120.005875 
	C543.840210,113.829254 543.840210,108.093887 543.840210,101.838005 
	C549.507751,101.838005 554.736328,101.838005 560.199036,101.838005 
	C560.199036,98.257278 560.199036,95.220520 560.199036,91.809662 
	C554.563538,91.809662 549.289001,91.809662 544.090942,91.809662 
	C544.090942,89.007431 544.090942,86.587570 544.090942,83.699280 
	C552.394470,83.699280 560.468018,83.699280 568.516418,83.699280 
	C568.516418,80.145798 568.516418,77.083023 568.516418,74.026459 
	C556.242004,74.026459 544.308289,74.026459 531.981140,74.026459 
	C531.981140,88.686630 532.045227,103.139587 531.930847,117.591141 
	C531.905884,120.749306 533.905945,119.904205 536.530579,120.005875 
M384.535797,81.980103 
	C392.540863,93.309891 401.341736,104.335648 398.902466,119.799500 
	C402.501740,119.799500 406.075958,119.799500 410.197296,119.799500 
	C410.197296,114.151924 409.051666,108.374084 410.518738,103.360809 
	C411.993042,98.322868 416.049133,94.033546 419.009857,89.439354 
	C422.270172,84.380196 425.571503,79.347450 429.172913,73.814766 
	C426.683380,73.814766 424.998840,74.005836 423.372589,73.779137 
	C418.386017,73.084007 415.016144,74.657661 412.670410,79.446663 
	C410.508514,83.860306 407.381409,87.801163 404.529419,92.180649 
	C401.932404,88.130005 399.514130,84.366982 397.104797,80.598221 
	C392.433014,73.290466 389.008301,72.088417 379.805145,74.707970 
	C381.265656,76.979256 382.684052,79.185028 384.535797,81.980103 
M308.496521,73.826851 
	C299.438324,73.826851 290.380127,73.826851 281.461609,73.826851 
	C281.461609,77.669945 281.461609,80.738663 281.461609,84.214317 
	C286.513794,84.214317 291.256104,84.214317 296.394226,84.214317 
	C296.394226,96.359177 296.394226,108.084427 296.394226,119.806320 
	C300.409088,119.806320 304.011444,119.806320 308.156128,119.806320 
	C308.156128,107.770676 308.156128,95.923195 308.156128,83.695862 
	C313.445801,83.695862 318.186829,83.695862 322.713562,83.695862 
	C322.713562,80.203667 322.713562,77.113098 322.713562,73.826843 
	C318.106049,73.826843 313.800018,73.826843 308.496521,73.826851 
M473.648804,109.825867 
	C470.319672,110.397255 469.420410,108.960190 469.481903,105.695442 
	C469.678894,95.239120 469.555115,84.776749 469.555115,74.059448 
	C465.547821,74.059448 461.981018,74.059448 458.302979,74.059448 
	C458.302979,89.424820 458.302979,104.625359 458.302979,119.610291 
	C470.352234,119.610291 482.071259,119.610291 493.650146,119.610291 
	C493.650146,116.250145 493.650146,113.296410 493.650146,109.825600 
	C487.173676,109.825600 480.897369,109.825600 473.648804,109.825867 
M506.499512,113.349007 
	C506.499512,115.471893 506.499512,117.594780 506.499512,119.765793 
	C510.556244,119.765793 514.131714,119.765793 517.713074,119.765793 
	C517.713074,104.329994 517.713074,89.145256 517.713074,74.190781 
	C513.848145,74.190781 510.297821,74.190781 506.497864,74.190781 
	C506.497864,87.169525 506.497864,99.775276 506.499512,113.349007 
M173.881302,146.530029 
	C171.759186,143.178452 168.846008,142.684464 165.380432,143.972946 
	C165.380432,152.098114 165.380432,160.015991 165.380432,168.026062 
	C167.456482,168.026062 169.252380,168.026062 171.766174,168.026062 
	C171.766174,163.896530 171.766174,159.927643 171.766174,156.005188 
	C178.228821,159.206512 178.387955,169.590683 187.902161,168.394394 
	C187.902161,159.900085 187.902161,151.837875 187.902161,143.781189 
	C185.846573,143.781189 184.111481,143.781189 181.962875,143.781189 
	C181.962875,148.005341 181.962875,151.882980 181.962875,156.855789 
	C178.930801,153.026993 176.603088,150.087646 173.881302,146.530029 
M466.593201,143.426895 
	C464.840546,143.426895 463.087891,143.426895 461.340515,143.426895 
	C461.340515,152.143890 461.340515,160.085663 461.340515,168.316818 
	C463.007355,168.407669 464.473114,168.581787 465.933929,168.547058 
	C468.755219,168.479996 471.602753,168.503571 474.387390,168.116119 
	C480.387238,167.281281 484.844421,162.007095 484.881226,156.013123 
	C484.917877,150.036621 480.534943,144.848160 474.448944,143.894577 
	C472.162872,143.536392 469.815125,143.572250 466.593201,143.426895 
M277.114075,165.270950 
	C277.567841,170.857498 281.265564,167.215469 284.021301,168.204117 
	C284.021301,164.973419 284.021301,162.402405 284.021301,159.993866 
	C288.205109,158.697830 289.197662,161.615143 290.093811,164.003616 
	C291.775269,168.485260 294.681152,169.543106 299.348145,167.943298 
	C297.745514,164.749573 296.225983,161.721497 294.706451,158.693420 
	C295.229858,158.747559 295.753265,158.801697 296.276703,158.855835 
	C297.096252,155.709732 299.060944,152.285675 298.385345,149.502502 
	C297.809723,147.131149 294.433899,144.309296 291.874481,143.797012 
	C287.273834,142.876175 282.356598,143.537033 277.124237,143.537033 
	C277.124237,150.738815 277.124237,157.524887 277.114075,165.270950 
M454.147614,151.669540 
	C451.946777,145.540314 447.266083,142.944885 441.091766,143.038620 
	C435.701935,143.120422 431.582245,145.721817 429.278473,150.696426 
	C426.938904,155.748260 428.144867,161.514206 432.123749,165.313843 
	C436.243134,169.247589 442.938599,170.029739 448.301361,167.203674 
	C453.490967,164.468872 455.627258,159.354797 454.147614,151.669540 
M405.461517,168.292496 
	C415.853088,170.270599 424.105316,163.574844 422.578247,154.404190 
	C421.425873,147.483429 416.558441,143.176529 409.673920,142.985825 
	C403.411865,142.812363 397.715118,146.926376 396.242371,152.685822 
	C394.581604,159.180283 397.724182,164.909546 405.461517,168.292496 
M210.076004,162.658524 
	C210.769897,163.257782 211.896118,163.743881 212.087357,164.474670 
	C213.306961,169.134964 216.487595,169.053894 220.677902,168.087723 
	C217.585068,160.417145 214.666580,152.908783 211.514313,145.499893 
	C210.328217,142.712173 204.133759,142.319565 202.885330,145.074509 
	C199.469589,152.612122 196.500259,160.352036 193.354141,168.011841 
	C193.671768,168.368851 193.989395,168.725876 194.307037,169.082886 
	C196.345078,168.458847 199.862839,168.245422 200.169357,167.140869 
	C201.628174,161.883911 205.376907,162.424377 210.076004,162.658524 
M303.499237,167.510284 
	C306.773773,169.249420 309.376678,169.594757 311.277802,165.330627 
	C311.891876,163.953278 314.498047,162.817093 316.233002,162.758545 
	C318.179443,162.692886 321.450165,163.499176 321.914368,164.752274 
	C323.615875,169.345718 326.608826,168.868439 330.661774,168.119339 
	C327.712860,160.912842 324.821564,154.103821 322.161316,147.205719 
	C321.240875,144.819016 320.304535,143.244171 317.327087,143.328461 
	C314.478607,143.409088 312.839050,144.207123 311.780060,147.081696 
	C309.324646,153.746872 306.462982,160.262375 303.499237,167.510284 
M501.411316,158.948563 
	C502.712982,159.563293 504.014648,160.178040 505.880371,161.059174 
	C500.362946,165.191238 496.403992,162.126007 492.394989,159.988541 
	C491.147614,161.698822 490.107758,163.124573 488.050873,165.944778 
	C493.500519,167.025146 498.077881,168.699219 502.592682,168.544830 
	C505.374268,168.449707 509.015625,166.191025 510.586060,163.798004 
	C513.644165,159.138016 510.179474,154.430695 503.547943,153.117294 
	C501.046692,152.621918 498.586639,151.918228 496.107819,151.309479 
	C496.275299,150.474838 496.442780,149.640182 496.610260,148.805542 
	C500.410706,149.354935 504.211121,149.904327 508.389709,150.508392 
	C509.050049,149.472137 509.973969,148.022171 510.978790,146.445297 
	C505.674957,143.423233 500.608032,141.799072 494.965851,143.961411 
	C491.642303,145.235138 489.919098,147.678162 490.007477,151.223129 
	C490.099854,154.927032 492.435974,156.880417 495.737000,157.834000 
	C497.320160,158.291351 498.974182,158.503586 501.411316,158.948563 
M248.721359,46.891777 
	C253.477539,46.891777 258.233704,46.891777 263.270477,46.891777 
	C263.138519,44.591255 263.047577,43.005966 262.934845,41.040611 
	C258.515961,41.040611 254.415009,41.040611 249.995270,41.040611 
	C250.164536,39.420795 250.288345,38.236027 250.440308,36.781868 
	C253.444046,36.781868 256.058960,36.781868 258.980286,36.781868 
	C258.838196,34.883812 258.721375,33.322994 258.583405,31.479713 
	C255.615341,31.479713 253.011093,31.479713 250.239334,31.479713 
	C250.239334,30.208498 250.137451,28.426086 250.254059,28.411674 
	C254.417542,27.897121 258.601440,27.547928 262.859863,27.168758 
	C262.859863,25.411459 262.859863,23.712681 262.859863,22.275124 
	C256.263336,22.275124 250.009888,22.275124 243.414169,22.275124 
	C243.414169,29.389460 243.610657,36.203827 243.334702,42.999004 
	C243.187698,46.618725 244.829300,47.276680 248.721359,46.891777 
M269.635254,44.195366 
	C273.884949,45.162048 278.111389,46.761116 282.390869,46.918777 
	C286.730072,47.078651 290.034088,44.369518 290.418060,39.689846 
	C290.819824,34.793156 287.765442,32.639286 283.258209,31.892231 
	C280.505493,31.435980 277.809814,30.635900 274.020172,29.736774 
	C279.315552,24.895073 283.073059,28.852428 287.128937,29.487614 
	C288.101501,27.964958 289.018951,26.528627 290.926514,23.542149 
	C284.943085,22.934818 280.147522,21.922937 275.406342,22.133749 
	C271.645233,22.300982 269.137268,25.106533 269.021240,29.192184 
	C268.903046,33.352646 271.227264,35.486435 275.197540,36.279102 
	C278.177795,36.874119 281.095581,37.782146 284.886932,38.771534 
	C279.524933,44.415676 275.660309,40.222576 270.910614,38.560650 
	C270.285431,40.296318 269.650146,42.059986 269.635254,44.195366 
M357.986664,28.772594 
	C358.048309,38.937637 365.612457,37.399910 372.439697,37.201061 
	C371.079224,41.301628 368.318848,42.968861 365.335938,41.678368 
	C361.402039,39.976456 359.925079,41.624950 358.564941,44.659992 
	C367.443970,49.929981 376.583923,46.774830 378.766846,37.729729 
	C380.370270,31.085655 377.380432,24.265409 371.964050,22.211535 
	C366.178253,20.017576 360.831757,22.236748 357.986664,28.772594 
M253.872498,151.506714 
	C253.872498,148.920135 253.872498,146.333557 253.872498,143.380203 
	C251.285080,143.530441 249.416122,143.638962 247.768860,143.734619 
	C247.768860,149.722305 247.354416,155.068222 247.880249,160.320023 
	C248.457336,166.083786 252.921783,169.060532 259.326538,168.856522 
	C265.180725,168.670013 269.605042,165.191391 269.983215,159.788132 
	C270.351013,154.533386 270.063080,149.232727 270.063080,143.747269 
	C267.881134,143.747269 265.990967,143.747269 263.782623,143.747269 
	C263.782623,148.360687 263.732178,152.664993 263.798920,156.967499 
	C263.850403,160.288208 262.419250,162.681824 259.087463,162.797836 
	C255.450073,162.924484 253.886963,160.432556 253.886017,156.929489 
	C253.885620,155.434555 253.878632,153.939606 253.872498,151.506714 
M394.734650,47.365280 
	C396.045685,47.241394 397.389496,47.260315 398.661835,46.967983 
	C403.262817,45.910881 405.699799,42.472862 405.166595,37.819870 
	C404.621490,33.062489 401.139526,31.570066 397.111877,31.235960 
	C395.147186,31.072983 393.103607,31.860912 391.012482,32.233238 
	C392.459473,26.675308 394.219727,26.013046 401.817627,28.077810 
	C402.789062,26.918846 403.807648,25.703613 404.948151,24.342953 
	C399.916748,20.705605 394.871765,20.491922 389.790833,23.325565 
	C385.575012,25.676741 383.224548,31.845631 384.277069,37.354717 
	C385.307648,42.748863 388.228851,46.428104 394.734650,47.365280 
M413.648926,43.860497 
	C417.675079,47.976936 422.522919,48.345932 427.304596,45.957516 
	C432.584778,43.320076 433.516174,38.250538 433.131714,32.811378 
	C432.655701,26.076656 428.650604,21.845091 422.324951,21.478388 
	C416.486450,21.139925 411.745941,24.534235 411.103699,30.987465 
	C410.706726,34.976269 412.400238,39.173134 413.648926,43.860497 
M385.020935,158.887070 
	C389.700653,158.494751 386.934540,155.485214 387.314728,153.486664 
	C378.740417,152.605087 378.740417,152.605087 379.308258,148.841675 
	C383.484039,148.841675 387.727051,148.841675 392.143707,148.841675 
	C391.987793,146.816101 391.866394,145.239059 391.752167,143.755325 
	C384.960541,143.755325 378.563293,143.755325 372.276459,143.755325 
	C372.276459,152.172882 372.276459,160.247604 372.276459,168.219925 
	C374.502075,168.219925 376.389221,168.219925 378.734894,168.219925 
	C378.734894,164.939682 378.734894,162.039246 378.734894,158.886780 
	C380.839996,158.886780 382.480621,158.886780 385.020935,158.887070 
M226.879745,149.619446 
	C227.156509,155.852600 227.433258,162.085739 227.725632,168.670715 
	C229.990051,168.553192 231.874069,168.455429 234.135239,168.338089 
	C234.135239,161.659363 234.135239,155.583389 234.135239,149.214417 
	C236.842133,149.214417 239.145111,149.214417 241.606781,149.214417 
	C241.606781,147.190872 241.606781,145.477158 241.606781,143.603699 
	C234.191742,143.603699 227.093750,143.603699 219.719498,143.603699 
	C219.719498,145.534134 219.719498,147.229187 219.719498,149.287842 
	C222.016220,149.287842 223.993820,149.287842 226.879745,149.619446 
M302.127899,32.556942 
	C302.127899,37.166065 302.127899,41.775185 302.127899,46.597481 
	C304.630005,46.597481 306.661804,46.597481 309.192413,46.597481 
	C309.192413,40.131020 309.192413,33.933372 309.192413,27.707502 
	C311.975922,27.568195 314.261688,27.453798 316.632263,27.335157 
	C316.632263,25.443295 316.632263,23.877932 316.632263,22.262363 
	C309.164825,22.262363 301.943024,22.262363 294.424713,22.262363 
	C294.536835,24.122601 294.630402,25.674900 294.727905,27.292448 
	C297.363983,27.493370 299.603729,27.664078 302.126343,27.856350 
	C302.126343,29.300926 302.126343,30.440563 302.127899,32.556942 
M341.544464,168.144501 
	C345.962433,168.144501 350.380402,168.144501 355.073578,168.144501 
	C354.953186,165.997879 354.866058,164.444946 354.766479,162.669373 
	C350.359467,162.669373 346.418396,162.669373 341.973328,162.669373 
	C341.973328,156.225922 341.973328,150.014084 341.973328,143.752151 
	C339.707733,143.752151 337.959473,143.752151 336.013977,143.752151 
	C336.013977,151.910553 336.013977,159.804230 336.013977,168.177444 
	C337.671478,168.177444 339.114410,168.177444 341.544464,168.144501 
M352.006958,40.375633 
	C352.006958,34.275948 352.006958,28.176260 352.006958,22.097696 
	C343.059509,21.998184 340.458618,23.976652 341.354004,29.782501 
	C342.819031,29.459492 344.284027,29.136480 346.192078,28.715790 
	C346.192078,35.026920 346.192078,40.795685 346.192078,46.562668 
	C348.277954,46.562668 349.996582,46.562668 352.006744,46.562668 
	C352.006744,44.616817 352.006744,42.975761 352.006958,40.375633 
M324.029724,46.603992 
	C323.813721,44.675690 323.712433,42.716927 323.219940,40.862034 
	C323.165375,40.656559 320.534058,40.620037 319.723663,41.277092 
	C318.932495,41.918560 318.314911,44.254704 318.718811,44.614429 
	C319.974335,45.732674 321.750946,46.265858 324.029724,46.603992 
z"/>
<path fill="#0D0D0D" opacity="1.000000" stroke="none" 
	d="
M649.943054,110.999985 
	C649.943359,90.342812 649.942688,70.185638 649.944214,50.028465 
	C649.944946,40.293266 645.812561,36.141361 635.932983,36.137764 
	C582.791321,36.118408 529.649719,36.126358 476.508087,36.124889 
	C475.193481,36.124851 473.878876,36.124886 472.595215,36.124886 
	C472.124725,32.114777 472.124664,32.069504 476.000641,32.065292 
	C492.826050,32.047028 509.651459,32.057327 526.476868,32.057480 
	C562.793091,32.057812 599.109314,32.056992 635.425537,32.059410 
	C648.245911,32.060265 654.021301,37.815464 654.022766,50.599274 
	C654.026245,80.918327 654.035828,111.237396 654.016846,141.556442 
	C654.010071,152.398056 647.885620,158.544952 636.965576,158.558762 
	C609.478699,158.593536 581.991760,158.567429 554.504822,158.531342 
	C552.207703,158.528320 548.936218,159.418243 550.406799,154.470367 
	C552.220398,154.470367 554.167358,154.470367 556.114319,154.470367 
	C582.601868,154.470413 609.089355,154.464569 635.576904,154.473419 
	C646.141052,154.476944 649.942932,150.661743 649.945435,139.986603 
	C649.947632,130.491074 649.944031,120.995529 649.943054,110.999985 
z"/>
<path fill="#0A0A0A" opacity="1.000000" stroke="none" 
	d="
M43.098618,153.274689 
	C69.910301,153.276306 96.237198,153.274094 122.564095,153.285202 
	C124.938614,153.286194 128.043472,152.529266 126.616737,157.310272 
	C125.094391,157.310272 123.477699,157.310043 121.861008,157.310318 
	C94.867630,157.314865 67.874260,157.324539 40.880882,157.321793 
	C28.630526,157.320541 22.987310,151.609085 22.985466,139.226471 
	C22.981071,109.733719 22.977484,80.240967 22.985403,50.748211 
	C22.988617,38.778885 28.767509,32.991615 40.743443,32.989731 
	C95.226166,32.981155 149.708893,32.985970 204.601425,32.985970 
	C204.720367,34.209782 204.833664,35.375534 204.988739,36.971291 
	C203.666656,36.971291 202.701828,36.971275 201.737000,36.971294 
	C148.250061,36.972351 94.763130,36.972336 41.276196,36.975418 
	C31.043917,36.976006 27.048925,40.933113 27.048355,51.058800 
	C27.046730,79.885094 27.051069,108.711380 27.046408,137.537674 
	C27.044374,150.113373 30.062155,153.171722 43.098618,153.274689 
z"/>
<path fill="#050505" opacity="1.000000" stroke="none" 
	d="
M270.006500,99.999268 
	C270.003540,105.659676 269.868195,110.824890 270.048737,115.979042 
	C270.152222,118.934341 269.283752,119.965988 266.143524,120.128891 
	C261.609894,120.364075 258.476379,119.244316 255.697861,115.302498 
	C250.541595,107.987457 244.717545,101.143066 239.159927,94.111908 
	C239.089706,94.023071 238.866058,94.055511 238.351151,93.973656 
	C238.351151,102.515297 238.351151,111.014793 238.351151,119.332817 
	C237.724045,119.669708 237.453766,119.937965 237.175400,119.946663 
	C227.160706,120.259125 227.160889,120.255768 227.161148,110.152237 
	C227.161469,98.206871 227.161209,86.261513 227.161209,74.308350 
	C234.133606,72.909340 239.485458,73.614365 243.603012,80.161247 
	C247.735580,86.731987 253.106384,92.523964 258.547607,99.436081 
	C258.547607,90.532043 258.547607,82.525116 258.547607,74.169914 
	C262.501526,74.169914 266.029419,74.169914 270.006500,74.169914 
	C270.006500,82.609612 270.006500,91.054535 270.006500,99.999268 
z"/>
<path fill="#070707" opacity="1.000000" stroke="none" 
	d="
M145.787933,75.003082 
	C157.118591,81.239464 161.518143,89.437248 159.977890,100.831146 
	C158.751801,109.901245 151.170670,117.993973 142.005661,120.016212 
	C130.138840,122.634598 119.685318,118.515953 113.888733,108.938240 
	C108.973335,100.816528 109.829826,89.162064 115.884674,81.779259 
	C122.655190,73.523788 134.257584,70.825844 145.787933,75.003082 
M131.419968,84.356026 
	C130.251907,84.982452 128.998672,85.490196 127.930977,86.256454 
	C123.953850,89.110680 121.742661,95.513947 123.109947,100.608513 
	C124.495865,105.772484 128.233810,108.651176 133.224609,109.867844 
	C137.911591,111.010445 143.271225,108.604988 146.100845,104.173477 
	C149.051071,99.553116 149.036880,94.665329 146.331390,90.011597 
	C143.184158,84.598030 138.164673,83.067566 131.419968,84.356026 
z"/>
<path fill="#070707" opacity="1.000000" stroke="none" 
	d="
M367.699188,100.671097 
	C367.347778,101.917152 366.878693,103.157043 367.284637,103.947517 
	C369.922485,109.083824 372.750610,114.122414 375.958496,120.003410 
	C371.861938,120.003410 368.320374,120.206688 364.826050,119.889565 
	C363.654480,119.783241 362.256836,118.569794 361.567017,117.479828 
	C359.978485,114.969925 358.459137,112.333984 357.457184,109.552689 
	C355.537537,104.224083 352.349396,101.639908 346.016937,103.743698 
	C346.016937,108.745148 346.016937,114.127533 346.016937,119.755638 
	C341.898346,119.755638 338.317810,119.755638 334.435760,119.755638 
	C334.435760,104.659195 334.435760,89.615028 334.435760,74.322693 
	C344.117188,74.322693 353.880035,73.713844 363.515839,74.556892 
	C369.068359,75.042679 372.773926,79.545715 374.010620,85.250931 
	C375.383636,91.585205 373.181152,96.650505 367.699188,100.671097 
M354.296387,83.853935 
	C351.567810,83.853935 348.839233,83.853935 346.076294,83.853935 
	C346.076294,87.540520 346.076294,90.458794 346.076294,93.785927 
	C350.068939,93.785927 353.873871,94.111282 357.575867,93.635643 
	C359.196442,93.427437 361.211548,91.874168 361.926941,90.391113 
	C362.532166,89.136497 362.095123,86.383850 361.091309,85.583321 
	C359.613495,84.404800 357.221680,84.372459 354.296387,83.853935 
z"/>
<path fill="#080808" opacity="1.000000" stroke="none" 
	d="
M595.321167,109.984024 
	C603.087769,109.987267 610.384155,109.987267 617.938232,109.987267 
	C617.938232,113.380394 617.938232,116.447083 617.938232,119.765625 
	C606.043579,119.765625 594.124329,119.765625 581.811523,119.765625 
	C581.811523,104.576126 581.811523,89.507805 581.811523,74.126297 
	C593.703674,74.126297 605.589661,74.126297 617.747192,74.126297 
	C617.747192,77.152641 617.747192,80.228889 617.747192,83.842194 
	C609.662170,83.842194 601.601990,83.842194 593.371338,83.842194 
	C593.371338,86.638100 593.371338,88.903091 593.371338,91.624130 
	C598.704956,91.624130 603.956299,91.624130 609.534241,91.624130 
	C609.534241,94.985130 609.534241,97.900246 609.534241,101.334526 
	C604.373596,101.334526 599.119385,101.334526 592.412476,101.334526 
	C593.374451,104.745338 594.112671,107.363052 595.321167,109.984024 
z"/>
<path fill="#050505" opacity="1.000000" stroke="none" 
	d="
M202.495972,82.093292 
	C202.496109,79.142868 202.496109,76.677711 202.496109,74.014740 
	C206.410095,74.014740 209.877350,74.014740 213.631042,74.014740 
	C213.631042,84.309029 214.558197,94.817192 213.374252,105.081863 
	C212.153412,115.666306 202.026031,121.923050 190.831528,120.825745 
	C179.133911,119.679123 172.098724,112.302132 172.008301,100.945625 
	C171.937164,92.010124 171.994003,83.073601 171.994003,73.978271 
	C175.877884,73.978271 179.324173,73.978271 183.505127,73.978271 
	C183.505127,78.629311 183.466354,83.200287 183.515747,87.770302 
	C183.567825,92.590103 183.408981,97.438606 183.888748,102.219734 
	C184.343521,106.751991 188.481354,110.007690 192.841522,109.991730 
	C197.774658,109.973671 201.663345,106.912270 202.006271,102.015892 
	C202.458649,95.557037 202.358459,89.059479 202.495972,82.093292 
z"/>
<path fill="#070707" opacity="1.000000" stroke="none" 
	d="
M58.645630,92.751236 
	C60.758984,82.342285 66.983131,76.380516 76.683167,73.830597 
	C86.466034,71.258896 95.434273,73.972618 102.660805,81.813416 
	C100.378151,84.337227 98.072014,86.887001 95.477783,89.755318 
	C91.221413,85.779137 86.468712,82.592949 80.468773,84.146660 
	C77.903519,84.810944 75.216576,86.445290 73.433601,88.409302 
	C68.848663,93.459785 69.351929,101.337433 74.059868,106.044983 
	C79.560890,111.545555 86.581146,111.123459 95.151558,104.701263 
	C97.502571,106.949028 99.868736,109.211273 102.190315,111.430893 
	C96.790436,119.757042 84.143692,122.999718 73.508865,118.994041 
	C62.918854,115.005249 56.873444,104.541023 58.645630,92.751236 
z"/>
<path fill="#060606" opacity="1.000000" stroke="none" 
	d="
M536.056213,119.997345 
	C533.905945,119.904205 531.905884,120.749306 531.930847,117.591141 
	C532.045227,103.139587 531.981140,88.686630 531.981140,74.026459 
	C544.308289,74.026459 556.242004,74.026459 568.516418,74.026459 
	C568.516418,77.083023 568.516418,80.145798 568.516418,83.699280 
	C560.468018,83.699280 552.394470,83.699280 544.090942,83.699280 
	C544.090942,86.587570 544.090942,89.007431 544.090942,91.809662 
	C549.289001,91.809662 554.563538,91.809662 560.199036,91.809662 
	C560.199036,95.220520 560.199036,98.257278 560.199036,101.838005 
	C554.736328,101.838005 549.507751,101.838005 543.840210,101.838005 
	C543.840210,108.093887 543.840210,113.829254 543.840210,120.005875 
	C541.104919,120.005875 538.817749,120.005875 536.056213,119.997345 
z"/>
<path fill="#070707" opacity="1.000000" stroke="none" 
	d="
M384.319092,81.685455 
	C382.684052,79.185028 381.265656,76.979256 379.805145,74.707970 
	C389.008301,72.088417 392.433014,73.290466 397.104797,80.598221 
	C399.514130,84.366982 401.932404,88.130005 404.529419,92.180649 
	C407.381409,87.801163 410.508514,83.860306 412.670410,79.446663 
	C415.016144,74.657661 418.386017,73.084007 423.372589,73.779137 
	C424.998840,74.005836 426.683380,73.814766 429.172913,73.814766 
	C425.571503,79.347450 422.270172,84.380196 419.009857,89.439354 
	C416.049133,94.033546 411.993042,98.322868 410.518738,103.360809 
	C409.051666,108.374084 410.197296,114.151924 410.197296,119.799500 
	C406.075958,119.799500 402.501740,119.799500 398.902466,119.799500 
	C401.341736,104.335648 392.540863,93.309891 384.319092,81.685455 
z"/>
<path fill="#040404" opacity="1.000000" stroke="none" 
	d="
M308.995239,73.826843 
	C313.800018,73.826843 318.106049,73.826843 322.713562,73.826843 
	C322.713562,77.113098 322.713562,80.203667 322.713562,83.695862 
	C318.186829,83.695862 313.445801,83.695862 308.156128,83.695862 
	C308.156128,95.923195 308.156128,107.770676 308.156128,119.806320 
	C304.011444,119.806320 300.409088,119.806320 296.394226,119.806320 
	C296.394226,108.084427 296.394226,96.359177 296.394226,84.214317 
	C291.256104,84.214317 286.513794,84.214317 281.461609,84.214317 
	C281.461609,80.738663 281.461609,77.669945 281.461609,73.826851 
	C290.380127,73.826851 299.438324,73.826851 308.995239,73.826843 
z"/>
<path fill="#070707" opacity="1.000000" stroke="none" 
	d="
M474.134918,109.825729 
	C480.897369,109.825600 487.173676,109.825600 493.650146,109.825600 
	C493.650146,113.296410 493.650146,116.250145 493.650146,119.610291 
	C482.071259,119.610291 470.352234,119.610291 458.302979,119.610291 
	C458.302979,104.625359 458.302979,89.424820 458.302979,74.059448 
	C461.981018,74.059448 465.547821,74.059448 469.555115,74.059448 
	C469.555115,84.776749 469.678894,95.239120 469.481903,105.695442 
	C469.420410,108.960190 470.319672,110.397255 474.134918,109.825729 
z"/>
<path fill="#040404" opacity="1.000000" stroke="none" 
	d="
M506.498688,112.865021 
	C506.497864,99.775276 506.497864,87.169525 506.497864,74.190781 
	C510.297821,74.190781 513.848145,74.190781 517.713074,74.190781 
	C517.713074,89.145256 517.713074,104.329994 517.713074,119.765793 
	C514.131714,119.765793 510.556244,119.765793 506.499512,119.765793 
	C506.499512,117.594780 506.499512,115.471893 506.498688,112.865021 
z"/>
<path fill="#101010" opacity="1.000000" stroke="none" 
	d="
M174.078339,146.839172 
	C176.603088,150.087646 178.930801,153.026993 181.962875,156.855789 
	C181.962875,151.882980 181.962875,148.005341 181.962875,143.781189 
	C184.111481,143.781189 185.846573,143.781189 187.902161,143.781189 
	C187.902161,151.837875 187.902161,159.900085 187.902161,168.394394 
	C178.387955,169.590683 178.228821,159.206512 171.766174,156.005188 
	C171.766174,159.927643 171.766174,163.896530 171.766174,168.026062 
	C169.252380,168.026062 167.456482,168.026062 165.380432,168.026062 
	C165.380432,160.015991 165.380432,152.098114 165.380432,143.972946 
	C168.846008,142.684464 171.759186,143.178452 174.078339,146.839172 
z"/>
<path fill="#121212" opacity="1.000000" stroke="none" 
	d="
M467.044342,143.427673 
	C469.815125,143.572250 472.162872,143.536392 474.448944,143.894577 
	C480.534943,144.848160 484.917877,150.036621 484.881226,156.013123 
	C484.844421,162.007095 480.387238,167.281281 474.387390,168.116119 
	C471.602753,168.503571 468.755219,168.479996 465.933929,168.547058 
	C464.473114,168.581787 463.007355,168.407669 461.340515,168.316818 
	C461.340515,160.085663 461.340515,152.143890 461.340515,143.426895 
	C463.087891,143.426895 464.840546,143.426895 467.044342,143.427673 
M468.489746,149.296448 
	C468.215851,153.648209 467.941956,157.999954 467.671967,162.289673 
	C474.027069,163.089981 477.511139,161.059082 477.983978,156.792053 
	C478.494232,152.187241 475.430664,149.488800 468.489746,149.296448 
z"/>
<path fill="#121212" opacity="1.000000" stroke="none" 
	d="
M277.119141,164.790955 
	C277.124237,157.524887 277.124237,150.738815 277.124237,143.537033 
	C282.356598,143.537033 287.273834,142.876175 291.874481,143.797012 
	C294.433899,144.309296 297.809723,147.131149 298.385345,149.502502 
	C299.060944,152.285675 297.096252,155.709732 296.276703,158.855835 
	C295.753265,158.801697 295.229858,158.747559 294.706451,158.693420 
	C296.225983,161.721497 297.745514,164.749573 299.348145,167.943298 
	C294.681152,169.543106 291.775269,168.485260 290.093811,164.003616 
	C289.197662,161.615143 288.205109,158.697830 284.021301,159.993866 
	C284.021301,162.402405 284.021301,164.973419 284.021301,168.204117 
	C281.265564,167.215469 277.567841,170.857498 277.119141,164.790955 
M283.956848,153.387878 
	C286.025360,153.575836 288.157928,154.118774 290.128296,153.763000 
	C290.836884,153.635086 291.154938,151.344147 291.651215,150.040329 
	C289.587921,149.706039 287.510986,149.103912 285.470032,149.207947 
	C284.891174,149.237442 284.417267,151.326187 283.956848,153.387878 
z"/>
<path fill="#0D0D0D" opacity="1.000000" stroke="none" 
	d="
M454.316406,152.034927 
	C455.627258,159.354797 453.490967,164.468872 448.301361,167.203674 
	C442.938599,170.029739 436.243134,169.247589 432.123749,165.313843 
	C428.144867,161.514206 426.938904,155.748260 429.278473,150.696426 
	C431.582245,145.721817 435.701935,143.120422 441.091766,143.038620 
	C447.266083,142.944885 451.946777,145.540314 454.316406,152.034927 
M437.219269,161.277222 
	C438.402985,161.827423 439.539154,162.671341 440.779419,162.872009 
	C444.315826,163.444214 447.634735,160.692886 448.101624,157.048325 
	C448.664673,152.653305 446.145599,149.353027 441.980927,149.029434 
	C438.433228,148.753784 435.014221,151.531418 435.013245,155.204147 
	C435.012756,157.047821 436.066437,158.891769 437.219269,161.277222 
z"/>
<path fill="#0C0C0C" opacity="1.000000" stroke="none" 
	d="
M405.075134,168.188599 
	C397.724182,164.909546 394.581604,159.180283 396.242371,152.685822 
	C397.715118,146.926376 403.411865,142.812363 409.673920,142.985825 
	C416.558441,143.176529 421.425873,147.483429 422.578247,154.404190 
	C424.105316,163.574844 415.853088,170.270599 405.075134,168.188599 
M404.452301,160.866516 
	C409.976715,164.380615 415.788391,162.461304 415.762848,156.772461 
	C415.752380,154.440536 414.022919,151.222015 412.085236,150.064682 
	C410.414368,149.066711 406.772308,149.634811 405.007263,150.906357 
	C401.787659,153.225723 401.895294,156.825455 404.452301,160.866516 
z"/>
<path fill="#111111" opacity="1.000000" stroke="none" 
	d="
M209.640701,162.634155 
	C205.376907,162.424377 201.628174,161.883911 200.169357,167.140869 
	C199.862839,168.245422 196.345078,168.458847 194.307037,169.082886 
	C193.989395,168.725876 193.671768,168.368851 193.354141,168.011841 
	C196.500259,160.352036 199.469589,152.612122 202.885330,145.074509 
	C204.133759,142.319565 210.328217,142.712173 211.514313,145.499893 
	C214.666580,152.908783 217.585068,160.417145 220.677902,168.087723 
	C216.487595,169.053894 213.306961,169.134964 212.087357,164.474670 
	C211.896118,163.743881 210.769897,163.257782 209.640701,162.634155 
z"/>
<path fill="#131313" opacity="1.000000" stroke="none" 
	d="
M303.632629,167.174423 
	C306.462982,160.262375 309.324646,153.746872 311.780060,147.081696 
	C312.839050,144.207123 314.478607,143.409088 317.327087,143.328461 
	C320.304535,143.244171 321.240875,144.819016 322.161316,147.205719 
	C324.821564,154.103821 327.712860,160.912842 330.661774,168.119339 
	C326.608826,168.868439 323.615875,169.345718 321.914368,164.752274 
	C321.450165,163.499176 318.179443,162.692886 316.233002,162.758545 
	C314.498047,162.817093 311.891876,163.953278 311.277802,165.330627 
	C309.376678,169.594757 306.773773,169.249420 303.632629,167.174423 
z"/>
<path fill="#0E0E0E" opacity="1.000000" stroke="none" 
	d="
M501.003723,158.887695 
	C498.974182,158.503586 497.320160,158.291351 495.737000,157.834000 
	C492.435974,156.880417 490.099854,154.927032 490.007477,151.223129 
	C489.919098,147.678162 491.642303,145.235138 494.965851,143.961411 
	C500.608032,141.799072 505.674957,143.423233 510.978790,146.445297 
	C509.973969,148.022171 509.050049,149.472137 508.389709,150.508392 
	C504.211121,149.904327 500.410706,149.354935 496.610260,148.805542 
	C496.442780,149.640182 496.275299,150.474838 496.107819,151.309479 
	C498.586639,151.918228 501.046692,152.621918 503.547943,153.117294 
	C510.179474,154.430695 513.644165,159.138016 510.586060,163.798004 
	C509.015625,166.191025 505.374268,168.449707 502.592682,168.544830 
	C498.077881,168.699219 493.500519,167.025146 488.050873,165.944778 
	C490.107758,163.124573 491.147614,161.698822 492.394989,159.988541 
	C496.403992,162.126007 500.362946,165.191238 505.880371,161.059174 
	C504.014648,160.178040 502.712982,159.563293 501.003723,158.887695 
z"/>
<path fill="#141414" opacity="1.000000" stroke="none" 
	d="
M248.252197,46.890625 
	C244.829300,47.276680 243.187698,46.618725 243.334702,42.999004 
	C243.610657,36.203827 243.414169,29.389460 243.414169,22.275124 
	C250.009888,22.275124 256.263336,22.275124 262.859863,22.275124 
	C262.859863,23.712681 262.859863,25.411459 262.859863,27.168758 
	C258.601440,27.547928 254.417542,27.897121 250.254059,28.411674 
	C250.137451,28.426086 250.239334,30.208498 250.239334,31.479713 
	C253.011093,31.479713 255.615341,31.479713 258.583405,31.479713 
	C258.721375,33.322994 258.838196,34.883812 258.980286,36.781868 
	C256.058960,36.781868 253.444046,36.781868 250.440308,36.781868 
	C250.288345,38.236027 250.164536,39.420795 249.995270,41.040611 
	C254.415009,41.040611 258.515961,41.040611 262.934845,41.040611 
	C263.047577,43.005966 263.138519,44.591255 263.270477,46.891777 
	C258.233704,46.891777 253.477539,46.891777 248.252197,46.890625 
z"/>
<path fill="#0C0C0C" opacity="1.000000" stroke="none" 
	d="
M269.325073,44.009510 
	C269.650146,42.059986 270.285431,40.296318 270.910614,38.560650 
	C275.660309,40.222576 279.524933,44.415676 284.886932,38.771534 
	C281.095581,37.782146 278.177795,36.874119 275.197540,36.279102 
	C271.227264,35.486435 268.903046,33.352646 269.021240,29.192184 
	C269.137268,25.106533 271.645233,22.300982 275.406342,22.133749 
	C280.147522,21.922937 284.943085,22.934818 290.926514,23.542149 
	C289.018951,26.528627 288.101501,27.964958 287.128937,29.487614 
	C283.073059,28.852428 279.315552,24.895073 274.020172,29.736774 
	C277.809814,30.635900 280.505493,31.435980 283.258209,31.892231 
	C287.765442,32.639286 290.819824,34.793156 290.418060,39.689846 
	C290.034088,44.369518 286.730072,47.078651 282.390869,46.918777 
	C278.111389,46.761116 273.884949,45.162048 269.325073,44.009510 
z"/>
<path fill="#0C0C0C" opacity="1.000000" stroke="none" 
	d="
M358.023865,28.377415 
	C360.831757,22.236748 366.178253,20.017576 371.964050,22.211535 
	C377.380432,24.265409 380.370270,31.085655 378.766846,37.729729 
	C376.583923,46.774830 367.443970,49.929981 358.564941,44.659992 
	C359.925079,41.624950 361.402039,39.976456 365.335938,41.678368 
	C368.318848,42.968861 371.079224,41.301628 372.439697,37.201061 
	C365.612457,37.399910 358.048309,38.937637 358.023865,28.377415 
M366.767609,32.719913 
	C368.637634,32.183323 370.507690,31.646734 372.701477,31.017250 
	C370.585907,26.811636 368.127350,25.731352 365.103577,27.869307 
	C364.599762,28.225540 365.698364,30.848095 366.767609,32.719913 
z"/>
<path fill="#0E0E0E" opacity="1.000000" stroke="none" 
	d="
M253.873566,151.975693 
	C253.878632,153.939606 253.885620,155.434555 253.886017,156.929489 
	C253.886963,160.432556 255.450073,162.924484 259.087463,162.797836 
	C262.419250,162.681824 263.850403,160.288208 263.798920,156.967499 
	C263.732178,152.664993 263.782623,148.360687 263.782623,143.747269 
	C265.990967,143.747269 267.881134,143.747269 270.063080,143.747269 
	C270.063080,149.232727 270.351013,154.533386 269.983215,159.788132 
	C269.605042,165.191391 265.180725,168.670013 259.326538,168.856522 
	C252.921783,169.060532 248.457336,166.083786 247.880249,160.320023 
	C247.354416,155.068222 247.768860,149.722305 247.768860,143.734619 
	C249.416122,143.638962 251.285080,143.530441 253.872498,143.380203 
	C253.872498,146.333557 253.872498,148.920135 253.873566,151.975693 
z"/>
<path fill="#0E0E0E" opacity="1.000000" stroke="none" 
	d="
M394.363129,47.304260 
	C388.228851,46.428104 385.307648,42.748863 384.277069,37.354717 
	C383.224548,31.845631 385.575012,25.676741 389.790833,23.325565 
	C394.871765,20.491922 399.916748,20.705605 404.948151,24.342953 
	C403.807648,25.703613 402.789062,26.918846 401.817627,28.077810 
	C394.219727,26.013046 392.459473,26.675308 391.012482,32.233238 
	C393.103607,31.860912 395.147186,31.072983 397.111877,31.235960 
	C401.139526,31.570066 404.621490,33.062489 405.166595,37.819870 
	C405.699799,42.472862 403.262817,45.910881 398.661835,46.967983 
	C397.389496,47.260315 396.045685,47.241394 394.363129,47.304260 
M395.620972,42.065556 
	C396.793121,41.131927 398.175964,40.348499 399.012238,39.175415 
	C399.271606,38.811573 398.053558,36.596508 397.500671,36.591953 
	C395.290009,36.573727 393.074890,37.091801 390.861420,37.411461 
	C390.787659,37.993771 390.713898,38.576077 390.640137,39.158382 
	C392.034180,40.111912 393.428223,41.065437 395.620972,42.065556 
z"/>
<path fill="#0C0C0C" opacity="1.000000" stroke="none" 
	d="
M413.402100,43.568542 
	C412.400238,39.173134 410.706726,34.976269 411.103699,30.987465 
	C411.745941,24.534235 416.486450,21.139925 422.324951,21.478388 
	C428.650604,21.845091 432.655701,26.076656 433.131714,32.811378 
	C433.516174,38.250538 432.584778,43.320076 427.304596,45.957516 
	C422.522919,48.345932 417.675079,47.976936 413.402100,43.568542 
M417.345520,30.330215 
	C416.238953,34.279377 415.523804,38.324440 419.469971,41.046829 
	C420.616730,41.837955 423.984711,41.699276 424.260010,41.073784 
	C425.567841,38.102257 426.692200,34.828716 426.772034,31.634972 
	C426.809692,30.127243 424.580170,27.695562 422.963348,27.274557 
	C421.542633,26.904610 419.543762,28.755009 417.345520,30.330215 
z"/>
<path fill="#151515" opacity="1.000000" stroke="none" 
	d="
M384.571106,158.886932 
	C382.480621,158.886780 380.839996,158.886780 378.734894,158.886780 
	C378.734894,162.039246 378.734894,164.939682 378.734894,168.219925 
	C376.389221,168.219925 374.502075,168.219925 372.276459,168.219925 
	C372.276459,160.247604 372.276459,152.172882 372.276459,143.755325 
	C378.563293,143.755325 384.960541,143.755325 391.752167,143.755325 
	C391.866394,145.239059 391.987793,146.816101 392.143707,148.841675 
	C387.727051,148.841675 383.484039,148.841675 379.308258,148.841675 
	C378.740417,152.605087 378.740417,152.605087 387.314728,153.486664 
	C386.934540,155.485214 389.700653,158.494751 384.571106,158.886932 
z"/>
<path fill="#1D1D1D" opacity="1.000000" stroke="none" 
	d="
M226.425583,149.453644 
	C223.993820,149.287842 222.016220,149.287842 219.719498,149.287842 
	C219.719498,147.229187 219.719498,145.534134 219.719498,143.603699 
	C227.093750,143.603699 234.191742,143.603699 241.606781,143.603699 
	C241.606781,145.477158 241.606781,147.190872 241.606781,149.214417 
	C239.145111,149.214417 236.842133,149.214417 234.135239,149.214417 
	C234.135239,155.583389 234.135239,161.659363 234.135239,168.338089 
	C231.874069,168.455429 229.990051,168.553192 227.725632,168.670715 
	C227.433258,162.085739 227.156509,155.852600 226.425583,149.453644 
z"/>
<path fill="#0E0E0E" opacity="1.000000" stroke="none" 
	d="
M302.127136,32.068573 
	C302.126343,30.440563 302.126343,29.300926 302.126343,27.856350 
	C299.603729,27.664078 297.363983,27.493370 294.727905,27.292448 
	C294.630402,25.674900 294.536835,24.122601 294.424713,22.262363 
	C301.943024,22.262363 309.164825,22.262363 316.632263,22.262363 
	C316.632263,23.877932 316.632263,25.443295 316.632263,27.335157 
	C314.261688,27.453798 311.975922,27.568195 309.192413,27.707502 
	C309.192413,33.933372 309.192413,40.131020 309.192413,46.597481 
	C306.661804,46.597481 304.630005,46.597481 302.127899,46.597481 
	C302.127899,41.775185 302.127899,37.166065 302.127136,32.068573 
z"/>
<path fill="#040404" opacity="1.000000" stroke="none" 
	d="
M341.050903,168.160980 
	C339.114410,168.177444 337.671478,168.177444 336.013977,168.177444 
	C336.013977,159.804230 336.013977,151.910553 336.013977,143.752151 
	C337.959473,143.752151 339.707733,143.752151 341.973328,143.752151 
	C341.973328,150.014084 341.973328,156.225922 341.973328,162.669373 
	C346.418396,162.669373 350.359467,162.669373 354.766479,162.669373 
	C354.866058,164.444946 354.953186,165.997879 355.073578,168.144501 
	C350.380402,168.144501 345.962433,168.144501 341.050903,168.160980 
z"/>
<path fill="#060606" opacity="1.000000" stroke="none" 
	d="
M352.006836,40.855167 
	C352.006744,42.975761 352.006744,44.616817 352.006744,46.562668 
	C349.996582,46.562668 348.277954,46.562668 346.192078,46.562668 
	C346.192078,40.795685 346.192078,35.026920 346.192078,28.715790 
	C344.284027,29.136480 342.819031,29.459492 341.359344,29.781488 
	C340.458618,23.976652 343.059509,21.998184 352.006958,22.097696 
	C352.006958,28.176260 352.006958,34.275948 352.006836,40.855167 
z"/>
<path fill="#101010" opacity="1.000000" stroke="none" 
	d="
M323.677551,46.814999 
	C321.750946,46.265858 319.974335,45.732674 318.718811,44.614429 
	C318.314911,44.254704 318.932495,41.918560 319.723663,41.277092 
	C320.534058,40.620037 323.165375,40.656559 323.219940,40.862034 
	C323.712433,42.716927 323.813721,44.675690 323.677551,46.814999 
z"/>
<path fill="#FBFBFB" opacity="1.000000" stroke="none" 
	d="
M131.807739,84.224258 
	C138.164673,83.067566 143.184158,84.598030 146.331390,90.011597 
	C149.036880,94.665329 149.051071,99.553116 146.100845,104.173477 
	C143.271225,108.604988 137.911591,111.010445 133.224609,109.867844 
	C128.233810,108.651176 124.495865,105.772484 123.109947,100.608513 
	C121.742661,95.513947 123.953850,89.110680 127.930977,86.256454 
	C128.998672,85.490196 130.251907,84.982452 131.807739,84.224258 
z"/>
<path fill="#F5F5F5" opacity="1.000000" stroke="none" 
	d="
M354.757782,83.852905 
	C357.221680,84.372459 359.613495,84.404800 361.091309,85.583321 
	C362.095123,86.383850 362.532166,89.136497 361.926941,90.391113 
	C361.211548,91.874168 359.196442,93.427437 357.575867,93.635643 
	C353.873871,94.111282 350.068939,93.785927 346.076294,93.785927 
	C346.076294,90.458794 346.076294,87.540520 346.076294,83.853935 
	C348.839233,83.853935 351.567810,83.853935 354.757782,83.852905 
z"/>
<path fill="#F5F5F5" opacity="1.000000" stroke="none" 
	d="
M468.925476,149.246735 
	C475.430664,149.488800 478.494232,152.187241 477.983978,156.792053 
	C477.511139,161.059082 474.027069,163.089981 467.671967,162.289673 
	C467.941956,157.999954 468.215851,153.648209 468.925476,149.246735 
z"/>
<path fill="#FBFBFB" opacity="1.000000" stroke="none" 
	d="
M283.926025,152.929230 
	C284.417267,151.326187 284.891174,149.237442 285.470032,149.207947 
	C287.510986,149.103912 289.587921,149.706039 291.651245,150.040344 
	C291.154938,151.344147 290.836884,153.635086 290.128296,153.763000 
	C288.157928,154.118774 286.025360,153.575836 283.926025,152.929230 
z"/>
<path fill="#F5F5F5" opacity="1.000000" stroke="none" 
	d="
M436.931335,161.006409 
	C436.066437,158.891769 435.012756,157.047821 435.013245,155.204147 
	C435.014221,151.531418 438.433228,148.753784 441.980927,149.029434 
	C446.145599,149.353027 448.664673,152.653305 448.101624,157.048325 
	C447.634735,160.692886 444.315826,163.444214 440.779419,162.872009 
	C439.539154,162.671341 438.402985,161.827423 436.931335,161.006409 
z"/>
<path fill="#F5F5F5" opacity="1.000000" stroke="none" 
	d="
M404.214478,160.539688 
	C401.895294,156.825455 401.787659,153.225723 405.007263,150.906357 
	C406.772308,149.634811 410.414368,149.066711 412.085236,150.064682 
	C414.022919,151.222015 415.752380,154.440536 415.762848,156.772461 
	C415.788391,162.461304 409.976715,164.380615 404.214478,160.539688 
z"/>
<path fill="#F5F5F5" opacity="1.000000" stroke="none" 
	d="
M366.412048,32.571655 
	C365.698364,30.848095 364.599762,28.225540 365.103577,27.869307 
	C368.127350,25.731352 370.585907,26.811636 372.701477,31.017250 
	C370.507690,31.646734 368.637634,32.183323 366.412048,32.571655 
z"/>
<path fill="#F5F5F5" opacity="1.000000" stroke="none" 
	d="
M395.221619,42.042259 
	C393.428223,41.065437 392.034180,40.111912 390.640137,39.158382 
	C390.713898,38.576077 390.787659,37.993771 390.861420,37.411461 
	C393.074890,37.091801 395.290009,36.573727 397.500671,36.591953 
	C398.053558,36.596508 399.271606,38.811573 399.012238,39.175415 
	C398.175964,40.348499 396.793121,41.131927 395.221619,42.042259 
z"/>
<path fill="#F5F5F5" opacity="1.000000" stroke="none" 
	d="
M417.572876,29.977495 
	C419.543762,28.755009 421.542633,26.904610 422.963348,27.274557 
	C424.580170,27.695562 426.809692,30.127243 426.772034,31.634972 
	C426.692200,34.828716 425.567841,38.102257 424.260010,41.073784 
	C423.984711,41.699276 420.616730,41.837955 419.469971,41.046829 
	C415.523804,38.324440 416.238953,34.279377 417.572876,29.977495 
z"/>
</svg>