<svg width="176" height="24" viewBox="0 0 176 24" fill="none" xmlns="http://www.w3.org/2000/svg">
<g clip-path="url(#clip0_3601_3335)">
<path fill-rule="evenodd" clip-rule="evenodd" d="M22.3326 14.5659L26.7143 13.7939V15.7202C26.6426 16.4836 26.91 17.2399 27.4446 17.7861C27.9348 18.2187 28.5674 18.452 29.2192 18.4404C29.898 18.4834 30.5592 18.2127 31.0157 17.7052C31.4599 17.1628 31.6888 16.474 31.6584 15.7716V1.4866H36.3031V15.8893C36.3054 16.8164 36.1293 17.7352 35.7845 18.5948C35.4537 19.4234 34.9565 20.1743 34.3239 20.8004C32.9694 22.1595 31.1239 22.9053 29.2119 22.8664C28.246 22.8786 27.2859 22.7142 26.3784 22.3811C25.5562 22.0773 24.8089 21.5983 24.1875 20.9769C23.5556 20.3502 23.0585 19.5995 22.7269 18.7713C22.3745 17.8679 22.2008 16.9039 22.2157 15.9334L22.3326 14.5659Z" fill="#3B5EAB"/>
<path fill-rule="evenodd" clip-rule="evenodd" d="M46.4825 7.28778C47.5281 7.27729 48.5654 7.47466 49.5351 7.86859C50.4519 8.23441 51.2863 8.78194 51.9889 9.47869C52.691 10.181 53.2493 11.0153 53.632 11.9343C54.0435 12.9259 54.2497 13.9916 54.2382 15.0663C54.2497 16.148 54.0435 17.2209 53.632 18.2203C53.2612 19.1533 52.7102 20.0029 52.0108 20.72C51.3082 21.4167 50.4738 21.9643 49.557 22.3301C47.5902 23.0945 45.4113 23.0945 43.4445 22.3301C42.5286 21.9625 41.6945 21.4152 40.9907 20.72C40.2867 20.0136 39.7283 19.1741 39.3475 18.2497C38.9386 17.2498 38.7349 16.1769 38.7487 15.0957C38.7348 14.0215 38.9386 12.9559 39.3475 11.9637C39.7303 11.0447 40.2886 10.2104 40.9907 9.5081C41.6945 8.8129 42.5286 8.26558 43.4445 7.898C44.4076 7.49608 45.4399 7.28874 46.4825 7.28778ZM46.4825 18.735C46.9037 18.7365 47.3217 18.6618 47.7167 18.5144C48.1081 18.3661 48.4622 18.1326 48.7537 17.8306C49.069 17.5055 49.3172 17.1207 49.484 16.6984C49.8538 15.6497 49.8538 14.5048 49.484 13.4562C49.3225 13.029 49.0737 12.6408 48.7537 12.3166C48.4574 12.0259 48.1042 11.8006 47.7167 11.6549C46.9249 11.3606 46.0547 11.3606 45.2629 11.6549C44.8668 11.7962 44.5056 12.0219 44.204 12.3166C43.884 12.6408 43.6352 13.029 43.4737 13.4562C43.1037 14.4998 43.1037 15.6401 43.4737 16.6837C43.637 17.1121 43.8855 17.5024 44.204 17.8306C44.501 18.1363 44.863 18.3701 45.2629 18.5144C45.6533 18.6598 46.0662 18.7344 46.4825 18.735Z" fill="#3B5EAB"/>
<path fill-rule="evenodd" clip-rule="evenodd" d="M56.583 22.4333V1.01682H60.9648V9.10407C61.3837 8.56622 61.935 8.14802 62.5641 7.89099C63.3895 7.51642 64.2879 7.33302 65.1931 7.35429C66.1729 7.34037 67.1441 7.53844 68.0413 7.9351C68.8627 8.2979 69.5917 8.84336 70.1737 9.53049C70.7681 10.2465 71.2216 11.0699 71.5101 11.9567C71.8311 12.9436 71.989 13.9768 71.9775 15.0151C71.9897 16.0739 71.8167 17.1266 71.4663 18.125C71.1407 19.0261 70.6447 19.855 70.0057 20.5659C68.7275 21.9907 66.9029 22.794 64.996 22.7715C64.1164 22.7952 63.2442 22.6035 62.4545 22.2128C61.8062 21.9021 61.261 21.4093 60.8844 20.7938V22.4481L56.583 22.4333ZM67.5374 15.0813C67.5478 14.533 67.4587 13.9873 67.2745 13.4712C67.1193 13.0409 66.8696 12.6514 66.5442 12.3316C66.2426 12.0369 65.8814 11.8112 65.4852 11.6699C64.6786 11.3744 63.7943 11.3744 62.9877 11.6699C62.5941 11.8122 62.2355 12.0378 61.936 12.3316C61.6136 12.6538 61.3644 13.0426 61.2057 13.4712C61.0094 13.9844 60.9151 14.5315 60.9282 15.0813C60.9143 15.6288 61.0086 16.1736 61.2057 16.684C61.3698 17.1077 61.6184 17.493 61.936 17.8163C62.2283 18.1366 62.5874 18.3877 62.9877 18.5515C63.386 18.7065 63.8094 18.7862 64.2364 18.7867C64.6623 18.7871 65.0849 18.7124 65.4852 18.5662C65.8851 18.4219 66.2472 18.1881 66.5442 17.8824C66.8682 17.5587 67.1176 17.1671 67.2745 16.7355C67.4574 16.1992 67.5391 15.6332 67.5155 15.0666L67.5374 15.0813Z" fill="#3B5EAB"/>
<path fill-rule="evenodd" clip-rule="evenodd" d="M88.3428 22.4317L79.7619 8.64664V22.4317H75.1465V1.46368H80.7843L88.6057 14.2121V1.46368H93.2431V22.4317H88.3428Z" fill="#3B5EAB"/>
<path fill-rule="evenodd" clip-rule="evenodd" d="M96.5156 3.23658C96.5143 2.88549 96.5838 2.5378 96.7201 2.21464C96.8476 1.90072 97.0364 1.61572 97.2752 1.37651C97.513 1.13796 97.7929 0.945997 98.1004 0.810399C99.0849 0.395315 100.221 0.618816 100.978 1.37651C101.479 1.86242 101.757 2.53625 101.745 3.23658C101.755 3.93877 101.478 4.61431 100.978 5.104C100.477 5.59512 99.7996 5.86046 99.1009 5.8392C98.7567 5.84264 98.4157 5.77248 98.1004 5.63335C97.7932 5.5004 97.5133 5.31091 97.2752 5.07459C97.0378 4.83138 96.8493 4.54429 96.7201 4.2291C96.5871 3.91524 96.5176 3.57782 96.5156 3.23658ZM96.8954 22.4328V7.72868H101.357V22.4328H96.8954Z" fill="#3B5EAB"/>
<path fill-rule="evenodd" clip-rule="evenodd" d="M104.534 22.4341V7.73001H108.792V9.41363C108.98 9.07975 109.228 8.78328 109.522 8.53873C109.837 8.26895 110.186 8.04158 110.559 7.86234C110.944 7.67442 111.348 7.52898 111.764 7.42857C112.164 7.3347 112.573 7.28539 112.984 7.28153C113.912 7.25198 114.832 7.46206 115.656 7.89175C116.366 8.27535 116.942 8.8679 117.307 9.59007C117.786 8.83825 118.453 8.22704 119.242 7.81823C120.051 7.4406 120.936 7.2569 121.827 7.28153C122.512 7.27994 123.192 7.38662 123.843 7.59767C124.484 7.79557 125.075 8.13176 125.574 8.58284C126.097 9.07085 126.508 9.66802 126.779 10.3326C127.103 11.15 127.258 12.0259 127.232 12.9059V22.4268H122.916V13.9057C122.933 13.2737 122.738 12.6542 122.361 12.1486C121.923 11.6315 121.266 11.3579 120.593 11.4134C119.906 11.3567 119.232 11.6291 118.775 12.1486C118.372 12.6385 118.152 13.255 118.154 13.891V22.3826H113.772V13.8616C113.787 13.23 113.591 12.6117 113.217 12.1045C112.771 11.5826 112.102 11.309 111.421 11.3693C110.743 11.322 110.083 11.5935 109.632 12.1045C109.222 12.6021 109.002 13.2302 109.011 13.8763V22.3385L104.534 22.4341Z" fill="#3B5EAB"/>
<path fill-rule="evenodd" clip-rule="evenodd" d="M130.299 22.4333V1.01682H134.681V9.10407C135.099 8.56622 135.651 8.14802 136.28 7.89099C137.106 7.51808 138.004 7.33475 138.909 7.35429C139.891 7.34114 140.864 7.53916 141.764 7.9351C142.583 8.29995 143.309 8.84517 143.89 9.53049C144.487 10.2444 144.941 11.0684 145.226 11.9567C145.549 12.9431 145.71 13.9764 145.701 15.0151C145.711 16.0744 145.535 17.1271 145.182 18.125C144.859 19.0274 144.363 19.8569 143.722 20.5659C143.107 21.2425 142.361 21.7854 141.531 22.1613C140.647 22.5512 139.691 22.7468 138.726 22.7348C137.847 22.7584 136.975 22.5667 136.185 22.176C135.538 21.8632 134.993 21.3709 134.615 20.7571V22.4113L130.299 22.4333ZM141.253 15.0813C141.264 14.533 141.174 13.9873 140.99 13.4712C140.833 13.0421 140.583 12.6531 140.26 12.3316C139.957 12.0391 139.596 11.8137 139.201 11.6699C138.394 11.3744 137.51 11.3744 136.703 11.6699C136.308 11.8137 135.948 12.0391 135.645 12.3316C135.325 12.6558 135.076 13.0441 134.914 13.4712C134.721 13.9854 134.627 14.5318 134.637 15.0813C134.627 15.6285 134.721 16.1726 134.914 16.684C135.081 17.1063 135.329 17.4911 135.645 17.8163C135.94 18.1357 136.302 18.3865 136.703 18.5515C137.102 18.7065 137.525 18.7862 137.952 18.7867C138.378 18.7871 138.801 18.7124 139.201 18.5662C139.6 18.4201 139.962 18.1866 140.26 17.8824C140.582 17.5569 140.831 17.1659 140.99 16.7355C141.171 16.1987 141.25 15.6327 141.224 15.0666L141.253 15.0813Z" fill="#3B5EAB"/>
<path fill-rule="evenodd" clip-rule="evenodd" d="M157.502 22.4323C157.453 22.2024 157.423 21.9687 157.414 21.7338C157.414 21.4103 157.414 21.153 157.414 20.9545C157.017 21.5873 156.424 22.0706 155.727 22.3293C155.029 22.6058 154.286 22.7503 153.536 22.7558C152.725 22.7688 151.919 22.6137 151.17 22.2999C150.507 22.0154 149.912 21.5918 149.425 21.0574C148.949 20.5311 148.584 19.9134 148.351 19.2415C148.101 18.5335 147.975 17.7872 147.979 17.0359V7.75021H152.448V16.0874C152.428 16.7357 152.629 17.3715 153.018 17.8887C153.459 18.4082 154.123 18.6818 154.8 18.6239C155.462 18.6583 156.107 18.407 156.574 17.9328C157.029 17.4392 157.269 16.7823 157.239 16.1095V7.74286H161.701V19.8076C161.701 20.4766 161.701 21.0574 161.759 21.5353C161.818 22.0132 161.832 22.322 161.847 22.4396L157.502 22.4323Z" fill="#3B5EAB"/>
<path fill-rule="evenodd" clip-rule="evenodd" d="M167.755 17.5793C167.794 18.0927 168.005 18.5774 168.353 18.9542C168.805 19.3925 169.422 19.6146 170.048 19.5644C170.506 19.596 170.959 19.4602 171.326 19.1821C171.59 18.963 171.745 18.6374 171.749 18.2925C171.754 18.015 171.642 17.7484 171.443 17.5573C171.115 17.296 170.724 17.1284 170.311 17.072L168.638 16.6897C167.942 16.5336 167.27 16.2864 166.637 15.9545C166.129 15.6922 165.672 15.3412 165.286 14.9179C164.957 14.539 164.708 14.0961 164.556 13.6166C164.401 13.142 164.322 12.6457 164.322 12.1462C164.319 11.4938 164.459 10.8488 164.731 10.2567C165.009 9.66314 165.404 9.13281 165.892 8.69805C166.417 8.24164 167.021 7.8876 167.674 7.65406C168.4 7.38853 169.166 7.25654 169.938 7.2644C170.85 7.23861 171.757 7.39091 172.611 7.71288C173.266 7.96445 173.869 8.33864 174.386 8.81569C174.814 9.21894 175.159 9.70371 175.401 10.242C175.6 10.687 175.728 11.1609 175.78 11.6462L172.078 12.3226C172.027 11.8486 171.827 11.4032 171.508 11.0507C171.101 10.667 170.552 10.4747 169.997 10.5214C169.598 10.5102 169.206 10.6288 168.879 10.8596C168.573 11.0684 168.393 11.4207 168.405 11.7933C168.39 12.0773 168.512 12.3511 168.733 12.5285C168.97 12.7176 169.252 12.8417 169.551 12.8887L171.494 13.271C172.78 13.4589 173.97 14.0657 174.882 14.9988C175.598 15.7846 175.992 16.8143 175.985 17.8808C175.985 18.5103 175.866 19.1341 175.634 19.7188C175.392 20.3198 175.02 20.8596 174.546 21.2995C174.017 21.7877 173.4 22.1695 172.728 22.4243C171.91 22.7254 171.043 22.8701 170.172 22.8508C169.176 22.8848 168.183 22.7199 167.251 22.3655C166.556 22.0926 165.921 21.6855 165.381 21.1671C164.941 20.7359 164.587 20.2245 164.337 19.66C164.135 19.2117 164.011 18.7317 163.972 18.241L167.755 17.5793Z" fill="#3B5EAB"/>
<path fill-rule="evenodd" clip-rule="evenodd" d="M22.639 0.604309H0V23.3957C12.5027 23.3946 22.6379 13.1912 22.639 0.604309Z" fill="#3B5EAB"/>
</g>
<defs>
<clipPath id="clip0_3601_3335">
<rect width="176" height="22.7914" fill="white" transform="translate(0 0.604309)"/>
</clipPath>
</defs>
</svg>
