<svg width="120" height="35" viewBox="0 0 120 35" fill="none" xmlns="http://www.w3.org/2000/svg">
<path d="M15.7939 8.34375C15.4892 8.34375 15.2227 8.60844 15.2227 8.91094V33.5647C15.2227 33.8672 15.4892 34.1319 15.7939 34.1319C16.0986 34.1319 16.3652 33.8672 16.3652 33.5647V8.91094C16.3652 8.60844 16.0986 8.34375 15.7939 8.34375Z" fill="url(#paint0_linear_5717_14267)"/>
<path d="M19.4131 7.85205C19.1084 7.85205 18.8418 8.11674 18.8418 8.41924V34.0939C18.8418 34.3964 19.1084 34.6611 19.4131 34.6611C19.7177 34.6611 19.9843 34.3964 19.9843 34.0939V8.41924C19.9843 8.07893 19.7558 7.85205 19.4131 7.85205Z" fill="url(#paint1_linear_5717_14267)"/>
<path d="M8.51853 14.28C8.21386 14.28 7.94727 14.5447 7.94727 14.8472V27.6278C7.94727 27.9303 8.21386 28.195 8.51853 28.195C8.82321 28.195 9.0898 27.9303 9.0898 27.6278V14.8472C9.0898 14.5447 8.82321 14.28 8.51853 14.28Z" fill="url(#paint2_linear_5717_14267)"/>
<path d="M12.1377 10.1208C11.833 10.1208 11.5664 10.3855 11.5664 10.688V31.7874C11.5664 32.0899 11.833 32.3546 12.1377 32.3546C12.4424 32.3546 12.7089 32.0899 12.7089 31.7874V10.688C12.7089 10.3477 12.4424 10.1208 12.1377 10.1208Z" fill="url(#paint3_linear_5717_14267)"/>
<path d="M23.0674 8.34375C22.7627 8.34375 22.4961 8.60844 22.4961 8.91094V33.5647C22.4961 33.8672 22.7627 34.1319 23.0674 34.1319C23.372 34.1319 23.6386 33.8672 23.6386 33.5647V8.91094C23.6386 8.60844 23.372 8.34375 23.0674 8.34375Z" fill="url(#paint4_linear_5717_14267)"/>
<path d="M30.3428 14.28C30.0381 14.28 29.7715 14.5447 29.7715 14.8472V27.6278C29.7715 27.9303 30.0381 28.195 30.3428 28.195C30.6474 28.195 30.914 27.9303 30.914 27.6278V14.8472C30.914 14.5447 30.6474 14.28 30.3428 14.28Z" fill="url(#paint5_linear_5717_14267)"/>
<path d="M26.7236 10.1208C26.4189 10.1208 26.1523 10.3855 26.1523 10.688V31.7874C26.1523 32.0899 26.4189 32.3546 26.7236 32.3546C27.0283 32.3546 27.2949 32.0899 27.2949 31.7874V10.688C27.2568 10.3477 27.0283 10.1208 26.7236 10.1208Z" fill="url(#paint6_linear_5717_14267)"/>
<path d="M38.5305 19.3092C38.4162 8.98641 29.8853 0.592041 19.4501 0.592041C9.01497 0.592041 0.484044 8.98641 0.36979 19.3092C0.36979 19.347 0.293621 22.1073 0.36979 22.7502C0.674467 24.5273 1.77892 25.5483 3.41655 25.5483C4.55909 25.5483 5.47311 24.603 5.47311 23.4308V18.5908C5.47311 17.4186 4.48292 16.4355 3.3023 16.4355C2.69295 16.4355 2.15976 16.6245 1.70275 16.927C2.95954 8.3436 10.4241 1.72642 19.4501 1.72642C28.4762 1.72642 35.9407 8.3436 37.1975 16.9648C36.7405 16.6623 36.1692 16.4733 35.598 16.4733C34.4173 16.4355 33.4272 17.4186 33.4272 18.6286V23.4686C33.4272 24.603 34.3412 25.5483 35.4837 25.5861C37.1213 25.6239 38.2258 24.603 38.4924 22.8258C38.6066 22.1452 38.5305 19.347 38.5305 19.3092Z" fill="url(#paint7_linear_5717_14267)"/>
<path d="M50.2226 11.3306V23.6574H48.0898V11.3306H50.2226Z" fill="#241C2E"/>
<path d="M54.3349 14.9983V19.5358C54.3349 20.8592 55.0585 21.8802 56.4676 21.8802C57.8006 21.8802 58.7146 20.7836 58.7146 19.4602V14.9983H60.8473V23.733H58.905L58.7527 22.5608C57.8387 23.4305 57.0008 23.8842 55.7821 23.8842C53.6874 23.8842 52.1641 22.2961 52.1641 19.6114V14.9983H54.3349Z" fill="#241C2E"/>
<path d="M68.6179 23.6953V19.0065C68.6179 17.8721 68.0086 16.8134 66.828 16.8134C65.6474 16.8134 64.9618 17.8721 64.9618 19.0065V23.6574H62.791V14.9606H64.8095L64.9618 16.0193C65.4188 15.1496 66.4471 14.8093 67.285 14.8093C68.3514 14.8093 69.3796 15.2253 69.8747 16.4353C70.6745 15.1875 71.6647 14.8471 72.8072 14.8471C75.2827 14.8471 76.5395 16.3596 76.5395 18.9687V23.6574H74.3687V18.9687C74.3687 17.8343 73.8736 16.8512 72.7311 16.8512C71.5505 16.8512 70.8269 17.8721 70.8269 19.0065V23.6574H68.6179V23.6953Z" fill="#241C2E"/>
<path d="M80.8411 12.5406C80.8411 14.2043 78.2895 14.2043 78.2895 12.5406C78.2514 10.839 80.8411 10.839 80.8411 12.5406ZM78.4799 14.9606V23.6953H80.6507V14.9606H78.4799Z" fill="#241C2E"/>
<path d="M89.1062 23.6953V19.1199C89.1062 17.7965 88.3826 16.7756 86.9735 16.7756C85.6405 16.7756 84.7265 17.8721 84.7265 19.1956V23.6574H82.5938V14.9606H84.5361L84.6884 16.1328C85.5643 15.2631 86.4784 14.8093 87.5828 14.8093C89.6394 14.8093 91.3151 16.3596 91.3151 19.0821V23.6574H89.1062V23.6953Z" fill="#241C2E"/>
<path d="M99.8845 14.9986H101.979V23.6954H99.9226L99.8083 22.4098C99.3132 23.4307 97.9422 23.9223 96.952 23.9601C94.3622 23.9601 92.4199 22.372 92.4199 19.347C92.4199 16.3598 94.4384 14.7717 96.9901 14.8095C98.1707 14.8095 99.2751 15.3389 99.7702 16.2086L99.8845 14.9986ZM94.6288 19.3092C94.6288 20.9729 95.7714 21.9561 97.2186 21.9561C100.646 21.9561 100.646 16.6623 97.2186 16.6623C95.7714 16.7001 94.6288 17.6454 94.6288 19.3092Z" fill="#241C2E"/>
<path d="M107.121 12.5408V14.9986H109.52V16.8514H107.083V20.5948C107.083 21.4267 107.54 21.8426 108.225 21.8426C108.568 21.8426 108.949 21.7292 109.292 21.578L109.901 23.4308C109.292 23.6955 108.759 23.7711 108.111 23.8089C106.207 23.8845 104.95 22.788 104.95 20.6326V16.8514H103.312V14.9986H104.95V12.7676L107.121 12.5408Z" fill="#241C2E"/>
<path d="M112.758 20.103C112.91 21.1618 113.824 21.9558 115.386 21.9558C116.185 21.9558 117.252 21.6533 117.747 21.1618L119.118 22.523C118.204 23.4683 116.68 23.9221 115.347 23.9221C112.339 23.9221 110.549 22.0693 110.549 19.2711C110.549 16.6243 112.377 14.7336 115.195 14.7336C118.128 14.7336 119.956 16.5486 119.613 20.103H112.758ZM117.518 18.3258C117.366 17.1915 116.49 16.6243 115.233 16.6243C114.053 16.6243 113.1 17.1915 112.796 18.3258H117.518Z" fill="#241C2E"/>
<defs>
<linearGradient id="paint0_linear_5717_14267" x1="7.3838" y1="29.5741" x2="33.7029" y2="3.06567" gradientUnits="userSpaceOnUse">
<stop offset="0.0414531" stop-color="#AB95F5"/>
<stop offset="1" stop-color="#FF4073"/>
</linearGradient>
<linearGradient id="paint1_linear_5717_14267" x1="9.20474" y1="31.3808" x2="35.5238" y2="4.87233" gradientUnits="userSpaceOnUse">
<stop offset="0.0414531" stop-color="#AB95F5"/>
<stop offset="1" stop-color="#FF4073"/>
</linearGradient>
<linearGradient id="paint2_linear_5717_14267" x1="3.74315" y1="25.9604" x2="30.0622" y2="-0.548011" gradientUnits="userSpaceOnUse">
<stop offset="0.0414531" stop-color="#AB95F5"/>
<stop offset="1" stop-color="#FF4073"/>
</linearGradient>
<linearGradient id="paint3_linear_5717_14267" x1="5.56398" y1="27.7673" x2="31.8831" y2="1.25887" gradientUnits="userSpaceOnUse">
<stop offset="0.0414531" stop-color="#AB95F5"/>
<stop offset="1" stop-color="#FF4073"/>
</linearGradient>
<linearGradient id="paint4_linear_5717_14267" x1="11.0226" y1="33.1876" x2="37.3417" y2="6.67918" gradientUnits="userSpaceOnUse">
<stop offset="0.0414531" stop-color="#AB95F5"/>
<stop offset="1" stop-color="#FF4073"/>
</linearGradient>
<linearGradient id="paint5_linear_5717_14267" x1="14.6634" y1="36.8008" x2="40.9824" y2="10.2924" gradientUnits="userSpaceOnUse">
<stop offset="0.0414531" stop-color="#AB95F5"/>
<stop offset="1" stop-color="#FF4073"/>
</linearGradient>
<linearGradient id="paint6_linear_5717_14267" x1="12.8425" y1="34.9942" x2="39.1615" y2="8.48578" gradientUnits="userSpaceOnUse">
<stop offset="0.0414531" stop-color="#AB95F5"/>
<stop offset="1" stop-color="#FF4073"/>
</linearGradient>
<linearGradient id="paint7_linear_5717_14267" x1="7.46417" y1="29.6536" x2="33.7832" y2="3.1452" gradientUnits="userSpaceOnUse">
<stop offset="0.0414531" stop-color="#AB95F5"/>
<stop offset="1" stop-color="#FF4073"/>
</linearGradient>
</defs>
</svg>
