<svg width="140" height="38" viewBox="0 0 140 38" fill="none" xmlns="http://www.w3.org/2000/svg">
<path d="M27.4708 22.2186C27.4708 24 26.5877 31.3301 24.2266 35.3726C25.193 34.4837 29.9722 28.8644 29.1119 22.1889C28.5688 22.0854 28.0096 22.0956 27.4708 22.2186Z" fill="#CDDA51"/>
<path d="M27.0684 14.1635C28.2963 15.4093 32.67 21.2556 33.7615 25.8559C33.8373 24.5208 33.3825 17.0494 28.2054 12.9548C27.748 13.2852 27.3616 13.701 27.0684 14.1784" fill="#4CC4D9"/>
<path d="M21.2834 8.74874C23.0041 8.73015 30.0876 9.66361 33.9913 12.0958C33.1348 11.0954 27.7037 6.14547 21.2493 7.03802C21.1514 7.60532 21.163 8.18563 21.2834 8.74874Z" fill="#2699D3"/>
<path d="M13.4969 9.17996C14.7022 7.90808 20.3493 3.3821 24.776 2.25154C23.4987 2.17344 16.2712 2.64947 12.3145 8.00477C12.6246 8.47117 13.0266 8.872 13.4969 9.18368" fill="#AA62A7"/>
<path d="M8.27932 15.1713C8.26037 13.3899 9.16239 6.05613 11.5236 2.01733C10.5571 2.90245 5.77792 8.5218 6.63825 15.201C7.18132 15.3045 7.74051 15.2943 8.27932 15.1713Z" fill="#E16BA8"/>
<path d="M8.68063 23.2266C7.45267 21.9808 3.0828 16.1346 1.98749 11.5491C1.91169 12.8842 2.36649 20.3556 7.54363 24.4464C8.0014 24.1179 8.38792 23.7032 8.68063 23.2266Z" fill="#F26E52"/>
<path d="M14.4714 28.6266C12.747 28.6266 5.66347 27.7117 1.75977 25.2795C2.6201 26.2799 8.04738 31.2299 14.5018 30.3373C14.6009 29.774 14.5906 29.1974 14.4714 28.6378" fill="#F8A045"/>
<path d="M26.3038 24.0486C22.6881 27.6299 18.0151 33.0968 10.9922 35.1534C12.2808 35.2315 20.2777 35.079 26.9481 24.8073C26.5691 24.149 26.3227 24.0635 26.3227 24.0635" fill="#FBDC61"/>
<path d="M34.1412 28.0201C34.1412 28.0201 37.9957 20.2549 33.7622 13.7914C31.3821 10.541 26.9971 9.07943 24.852 9.07943C24.4533 9.03618 24.0516 9.12946 23.715 9.34348C26.1307 11.2313 28.2862 13.419 30.1276 15.8517C32.2804 18.9012 33.4477 22.5197 33.6599 25.0672C33.2203 23.0144 31.3442 18.6632 28.8049 15.5132C27.1714 13.4827 24.5753 11.6753 23.0403 9.97198C22.8963 10.8497 21.8275 17.2797 25.4546 20.9987C28.0505 23.6748 30.9673 26.0324 34.1412 28.0201Z" fill="url(#paint0_linear_5715_14854)"/>
<path d="M25.7709 3.59414C25.3441 3.53461 24.9135 3.50478 24.4823 3.50488C20.0215 3.50488 15.7047 6.57674 15.6327 7.78913C18.603 7.36266 21.6191 7.33889 24.596 7.71847C28.2003 8.29862 31.4976 10.0019 33.3888 11.6494C31.6757 10.5337 27.3741 8.81184 23.4363 8.43994C21.9484 8.35502 20.4558 8.39732 18.9755 8.56639C17.8431 8.69194 16.704 8.75031 15.5645 8.74118C16.0685 9.4701 19.7069 14.7956 24.8121 14.7733C28.5003 14.7607 32.1723 14.2947 35.7424 13.3862C35.7424 13.3862 33.1652 5.07057 25.7709 3.59414Z" fill="url(#paint1_linear_5715_14854)"/>
<path d="M15.1321 6.01489C18.0731 3.78352 21.5751 2.57857 24.0348 2.35544C22.0488 2.79799 17.8457 4.75416 14.8024 7.37231C12.8391 9.06816 11.0957 11.7532 9.44708 13.3412C10.296 13.49 16.5079 14.5983 20.1046 10.8421C22.7133 8.11753 24.9888 5.10335 26.8849 1.86081C24.6977 0.796944 22.2953 0.227626 19.8544 0.194719C17.4509 0.161311 15.0989 0.878958 13.1385 2.24387C9.21968 5.31945 7.98793 11.6231 8.84068 12.6235C10.6366 10.162 12.7515 7.94046 15.1321 6.01489Z" fill="url(#paint2_linear_5715_14854)"/>
<path d="M14.0826 11.5114C14.0736 7.70142 13.6235 3.90481 12.741 0.19458C12.741 0.19458 4.70995 2.86479 3.2849 10.5296C2.61407 15.5725 6.06298 20.9315 7.33642 21.0208C6.92397 17.9362 6.90105 14.8134 7.2682 11.7234C7.82533 8.0044 9.47398 4.59411 11.0658 2.63422C9.97426 4.40816 8.33698 8.85976 7.95798 12.9357C7.72679 15.5725 8.33698 18.7485 8.24981 21.0765C8.95854 20.5596 14.1054 16.796 14.0826 11.5114Z" fill="url(#paint3_linear_5715_14854)"/>
<path d="M12.0079 28.046C9.60154 26.1565 7.45494 23.9689 5.62174 21.5378C3.46902 18.4883 2.3017 14.8697 2.08946 12.3222C2.5291 14.3751 4.40515 18.7263 6.93687 21.8762C8.57415 23.9068 11.1665 25.7142 12.7053 27.4175C12.8455 26.5398 13.9143 20.1097 10.2872 16.3908C7.69362 13.7151 4.77938 11.3575 1.60813 9.36938C0.579919 11.6518 0.0332852 14.1149 0.00116413 16.6102V16.6809C-0.0322609 19.1255 0.654741 21.5275 1.97955 23.5981C4.9547 27.6555 11.0414 28.9274 12.0079 28.046Z" fill="url(#paint4_linear_5715_14854)"/>
<path d="M20.1135 29.6006C17.143 30.0252 14.1273 30.049 11.1502 29.6713C7.5459 29.0948 4.24859 27.3878 2.35738 25.7403C4.07046 26.856 8.37212 28.5779 12.3099 28.9498C13.7988 29.0408 15.2929 29.001 16.7746 28.8308C17.9069 28.705 19.046 28.6467 20.1856 28.656C19.6777 27.9234 16.0582 22.6201 10.991 22.6201H10.9531C7.25763 22.625 3.57754 23.0873 0 23.9961C0 23.9961 2.5772 32.308 9.98287 33.7844C14.8606 34.4873 20.034 30.932 20.1135 29.6006Z" fill="url(#paint5_linear_5715_14854)"/>
<path d="M15.9184 37.195C18.3132 37.2251 20.6562 36.5104 22.6116 35.1533C26.5304 32.0703 27.7622 25.7667 26.9094 24.7662C25.1135 27.2277 22.9986 29.4493 20.618 31.3748C17.677 33.6062 14.175 34.8112 11.7191 35.0343C13.7013 34.5769 17.9082 32.6393 20.9478 30.0174C22.911 28.3253 24.6582 25.6402 26.303 24.0671C25.3027 23.8882 24.2879 23.7986 23.271 23.7993C20.9478 23.7993 17.8059 24.2902 15.6304 26.5662C13.0279 29.2842 10.7575 32.2909 8.86523 35.5252C11.0458 36.585 13.4398 37.1542 15.873 37.1913L15.9184 37.195Z" fill="url(#paint6_linear_5715_14854)"/>
<path d="M32.4508 26.9157C31.4579 26.2277 30.1389 25.2496 28.657 23.9963C28.6116 24.5951 28.5547 25.1566 28.4789 25.6661C27.9218 29.3851 26.2731 32.8103 24.6889 34.7702C25.7804 32.9962 27.4291 28.5446 27.7891 24.4686C27.8232 24.0967 27.8384 23.6839 27.8422 23.2823C27.0842 22.5943 26.2731 21.8393 25.4697 21.0137C24.9988 20.5203 24.5914 19.972 24.2569 19.3811C22.9076 21.0398 21.6645 23.2711 21.6759 25.8781C21.6836 29.6863 22.1299 33.4814 23.0062 37.1912C23.0062 37.1912 30.9955 34.5359 32.4508 26.9157Z" fill="url(#paint7_linear_5715_14854)"/>
<path d="M51.7683 23.3287H51.7304L45.2154 13.0085H42.9414V25.9171H44.6848V15.3812H44.7227L51.3097 25.9171H53.5117V13.0085H51.7683V23.3287Z" fill="black"/>
<path d="M58.2825 20.0114H64.1683V18.4605H58.2825V14.5965H64.536V13.0085H56.5391V25.9171H64.8013V24.3142H58.2825V20.0114Z" fill="black"/>
<path d="M78.243 23.2915H78.2051L75.2982 13.0085H73.3804L70.4546 23.2915H70.4204L67.6727 13.0085H65.7891L69.4502 25.9171H71.2656L74.2938 15.5449H74.3317L77.3599 25.9171H79.1754L82.8403 13.0085H80.9908L78.243 23.2915Z" fill="black"/>
<path d="M90.892 19.6839C90.5345 19.4015 90.1359 19.1734 89.7095 19.0071C89.2774 18.8397 88.8491 18.6872 88.4247 18.5533L87.4279 18.1815C87.14 18.0794 86.8682 17.9379 86.6206 17.7612C86.3957 17.6039 86.2092 17.3993 86.0749 17.1625C85.9299 16.8897 85.8594 16.5848 85.8702 16.2773C85.8607 15.9505 85.9364 15.6266 86.09 15.3364C86.2321 15.0814 86.427 14.8584 86.6623 14.6819C86.8965 14.5088 87.1631 14.3825 87.4468 14.31C87.7243 14.2328 88.0112 14.1927 88.2996 14.191C88.7974 14.1828 89.2892 14.2993 89.7284 14.5294C90.13 14.7338 90.4748 15.0313 90.7328 15.396L91.9645 14.1538C91.5513 13.6847 91.0322 13.3167 90.4485 13.079C89.8029 12.8089 89.1075 12.6722 88.4057 12.6774C87.884 12.6779 87.3649 12.7492 86.8632 12.8894C86.3664 13.0207 85.9005 13.2455 85.4912 13.5513C85.0817 13.8608 84.7444 14.2526 84.502 14.7005C84.2387 15.2144 84.1085 15.7841 84.123 16.3592C84.107 16.8694 84.204 17.3769 84.4073 17.8467C84.5859 18.2328 84.844 18.5785 85.1653 18.862C85.474 19.1375 85.8243 19.3646 86.2037 19.5352C86.575 19.7112 86.9573 19.864 87.3483 19.9926L88.4853 20.3645C88.8185 20.4801 89.1355 20.6363 89.429 20.8293C89.6901 21.0032 89.9098 21.2303 90.0733 21.495C90.2386 21.7949 90.3197 22.1324 90.3083 22.4731C90.3183 22.8176 90.2401 23.159 90.0809 23.4661C89.9349 23.7323 89.7334 23.9655 89.4897 24.1504C89.2509 24.332 88.9797 24.4682 88.69 24.552C88.4034 24.6358 88.1059 24.6784 87.8069 24.6785C87.2483 24.6846 86.6979 24.5461 86.2113 24.2768C85.7333 24.0122 85.3287 23.6368 85.0326 23.1835L83.6758 24.3698C84.15 24.9837 84.778 25.4667 85.4988 25.7718C86.2147 26.0843 86.9893 26.2465 87.7728 26.2479C88.3188 26.2475 88.8617 26.1673 89.3835 26.0099C89.8858 25.8601 90.3533 25.6149 90.7593 25.2884C91.1682 24.9567 91.497 24.5401 91.722 24.0686C91.9725 23.5219 92.0955 22.9273 92.082 22.3281C92.102 21.7778 91.9877 21.2308 91.7485 20.7327C91.54 20.3287 91.2483 19.9716 90.892 19.6839Z" fill="black"/>
<path d="M102.641 13.0085H92.9004V14.5965H96.8989V25.9171H98.6423V14.5965H102.641V13.0085Z" fill="black"/>
<path d="M107.219 13.0085L101.811 25.9059H103.751L105.002 22.7336H110.918L112.188 25.9059H114.162L108.807 13.0085H107.219ZM105.616 21.1605L107.962 15.1209L110.285 21.1754L105.616 21.1605Z" fill="black"/>
<path d="M123.353 18.8808C123.934 18.2546 124.238 17.4282 124.199 16.5825C124.216 16.0076 124.096 15.4368 123.846 14.9164C123.628 14.4711 123.298 14.0873 122.887 13.8007C122.454 13.5139 121.969 13.3107 121.458 13.202C120.898 13.0721 120.325 13.0072 119.749 13.0086H115.773V25.9059H117.517V20.175H119.382L122.546 25.9059H124.661L121.17 19.9928C122.002 19.8663 122.769 19.4757 123.353 18.8808ZM119.514 18.6614H117.505V14.5408H119.635C119.997 14.5394 120.357 14.573 120.712 14.6412C121.027 14.6981 121.327 14.8129 121.599 14.9796C121.854 15.1361 122.066 15.3519 122.216 15.6081C122.377 15.9079 122.456 16.2438 122.444 16.5825C122.456 16.9224 122.377 17.2594 122.216 17.5606C122.063 17.8188 121.849 18.0369 121.591 18.1965C121.308 18.3731 120.995 18.499 120.666 18.5684C120.288 18.6372 119.903 18.6684 119.518 18.6614H119.514Z" fill="black"/>
<path d="M124.994 14.5965H128.993V25.9171H130.736V14.5965H134.738V13.0085H124.994V14.5965Z" fill="black"/>
<path d="M137.236 11.1416C136.92 11.1409 136.612 11.2321 136.349 11.4037C136.086 11.5753 135.881 11.8195 135.759 12.1055C135.638 12.3916 135.606 12.7065 135.667 13.0105C135.728 13.3144 135.88 13.5937 136.103 13.8131C136.326 14.0324 136.61 14.1819 136.92 14.2426C137.229 14.3033 137.55 14.2725 137.842 14.1541C138.134 14.0357 138.383 13.8351 138.559 13.5775C138.734 13.32 138.828 13.0171 138.828 12.7073C138.828 12.2927 138.66 11.895 138.362 11.6015C138.064 11.308 137.659 11.1426 137.236 11.1416ZM137.236 14.0833C136.958 14.084 136.685 14.0036 136.454 13.8523C136.222 13.701 136.041 13.4856 135.934 13.2333C135.827 12.981 135.799 12.7033 135.853 12.4353C135.907 12.1673 136.041 11.9211 136.238 11.728C136.435 11.5348 136.686 11.4033 136.959 11.3502C137.232 11.2971 137.515 11.3247 137.772 11.4296C138.029 11.5345 138.249 11.7119 138.403 11.9394C138.557 12.1668 138.639 12.4341 138.638 12.7073C138.638 13.0722 138.491 13.4222 138.228 13.6803C137.965 13.9383 137.608 14.0833 137.236 14.0833Z" fill="black"/>
<path d="M137.827 12.3874C137.827 12.0155 137.512 11.8965 137.194 11.8965H136.564V13.5142H136.943V12.8894H137.08L137.436 13.5291H137.902L137.47 12.8374C137.574 12.8156 137.667 12.7585 137.732 12.6761C137.797 12.5938 137.831 12.4916 137.827 12.3874ZM137.144 12.5882H136.955V12.2163H137.167C137.285 12.2163 137.432 12.2461 137.432 12.3948C137.432 12.5436 137.269 12.5882 137.144 12.5882Z" fill="black"/>
<defs>
<linearGradient id="paint0_linear_5715_14854" x1="16.7357" y1="17.81" x2="33.5734" y2="17.1491" gradientUnits="userSpaceOnUse">
<stop stop-color="#4CC4D9"/>
<stop offset="1" stop-color="#0995B5"/>
</linearGradient>
<linearGradient id="paint1_linear_5715_14854" x1="26.8324" y1="12.0381" x2="42.0671" y2="-4.73246" gradientUnits="userSpaceOnUse">
<stop stop-color="#2699D3"/>
<stop offset="1" stop-color="#0C52A0"/>
</linearGradient>
<linearGradient id="paint2_linear_5715_14854" x1="14.0355" y1="18.3588" x2="13.4605" y2="3.12394" gradientUnits="userSpaceOnUse">
<stop stop-color="#AA62A7"/>
<stop offset="1" stop-color="#6D2C90"/>
</linearGradient>
<linearGradient id="paint3_linear_5715_14854" x1="9.8977" y1="13.2769" x2="-6.8553" y2="-2.53073" gradientUnits="userSpaceOnUse">
<stop stop-color="#E16BA8"/>
<stop offset="1" stop-color="#C73793"/>
</linearGradient>
<linearGradient id="paint4_linear_5715_14854" x1="21.6777" y1="16.956" x2="7.05921" y2="17.5304" gradientUnits="userSpaceOnUse">
<stop stop-color="#F26E52"/>
<stop offset="1" stop-color="#D32E27"/>
</linearGradient>
<linearGradient id="paint5_linear_5715_14854" x1="8.97852" y1="18.7576" x2="-6.56407" y2="35.8696" gradientUnits="userSpaceOnUse">
<stop stop-color="#F8A045"/>
<stop offset="1" stop-color="#F26E21"/>
</linearGradient>
<linearGradient id="paint6_linear_5715_14854" x1="23.3034" y1="16.6329" x2="23.8373" y2="30.7818" gradientUnits="userSpaceOnUse">
<stop stop-color="#FBDC61"/>
<stop offset="1" stop-color="#FBB033"/>
</linearGradient>
<linearGradient id="paint7_linear_5715_14854" x1="12.401" y1="29.9831" x2="27.2983" y2="44.0345" gradientUnits="userSpaceOnUse">
<stop stop-color="#CDDA51"/>
<stop offset="1" stop-color="#85A43D"/>
</linearGradient>
</defs>
</svg>
